<svg width="1416" height="152" viewBox="0 0 1416 152" fill="none" xmlns="http://www.w3.org/2000/svg">
<g clip-path="url(#clip0_442_933)">
<rect x="644.319" y="123.842" width="13.991" height="61.1803" transform="rotate(-180 644.319 123.842)" fill="#4863FF"/>
<rect x="630.329" y="105.222" width="33.8116" height="42.5602" transform="rotate(-180 630.329 105.222)" fill="#6A8CFF"/>
<path d="M596.519 105.222L578.538 105.222C569.795 105.222 562.707 98.1345 562.707 89.3914L562.707 62.662L596.519 62.662L596.519 105.222Z" fill="#1C26E6"/>
<path d="M562.706 83.9421L561.048 83.9421C552.305 83.9421 545.217 76.8544 545.217 68.1113L545.217 62.662L562.706 62.662L562.706 83.9421Z" fill="#1A24B9"/>
<rect x="630.329" y="62.662" width="33.8116" height="42.5602" transform="rotate(-180 630.329 62.662)" fill="#4863FF"/>
<path d="M596.519 62.662L562.707 62.662L562.707 35.9325C562.707 27.1895 569.795 20.1018 578.538 20.1018L596.519 20.1018L596.519 62.662Z" fill="#1A24B9"/>
<path d="M562.706 62.662L545.217 62.662L545.217 57.2126C545.217 48.4696 552.305 41.3819 561.048 41.3819L562.706 41.3819L562.706 62.662Z" fill="#1C26E6"/>
<rect x="644.319" y="62.662" width="13.991" height="61.1803" transform="rotate(-180 644.319 62.662)" fill="#6A8CFF"/>
<rect x="545.217" y="68.6155" width="335.784" height="10.64" transform="rotate(-180 545.217 68.6155)" fill="#6A8CFF"/>
<rect x="214.096" y="150.379" width="335.784" height="10.64" transform="rotate(-180 214.096 150.379)" fill="#6A8CFF"/>
<rect x="209.434" y="149.746" width="91.7704" height="9.32734" transform="rotate(-90 209.434 149.746)" fill="#4863FF"/>
<path d="M672.886 22.7932L682.796 11.4882V34.0983H662.976L672.886 22.7932Z" fill="#1C26E6"/>
<path d="M503.826 30.7733L493.916 19.4682L513.737 19.4682L513.737 42.0783L503.826 30.7733Z" fill="#1C26E6"/>
<path d="M653.648 92.6185H673.469L663.559 103.924L653.648 115.229V92.6185Z" fill="#4863FF"/>
<rect x="767.214" y="29.3043" width="14.0726" height="61.1803" fill="#12B769"/>
<rect x="781.287" y="47.9243" width="34.0088" height="42.5602" fill="#36D183"/>
<path d="M815.295 47.9243L833.473 47.9243C842.216 47.9243 849.304 55.012 849.304 63.7551L849.304 90.4845L815.295 90.4845L815.295 47.9243Z" fill="#067647"/>
<path d="M849.305 69.2044L851.065 69.2044C859.808 69.2044 866.895 76.2921 866.895 85.0351L866.895 90.4845L849.305 90.4845L849.305 69.2044Z" fill="#075E39"/>
<rect x="781.287" y="90.4845" width="34.0088" height="42.5602" fill="#12B769"/>
<path d="M815.295 90.4845L849.304 90.4845L849.304 117.214C849.304 125.957 842.216 133.045 833.473 133.045L815.295 133.045L815.295 90.4845Z" fill="#075E39"/>
<path d="M849.305 90.4845L866.895 90.4845L866.895 95.9338C866.895 104.677 859.808 111.765 851.065 111.765L849.305 111.765L849.305 90.4845Z" fill="#067647"/>
<rect x="767.214" y="90.4845" width="14.0726" height="61.1803" fill="#36D183"/>
<rect x="866.895" y="84.0859" width="337.742" height="9.31011" fill="#36D183"/>
<rect x="1195.26" y="0.19635" width="342.433" height="10.6401" fill="#36D183"/>
<rect x="1204.64" y="0.295593" width="93.1004" height="9.38174" transform="rotate(90 1204.64 0.295593)" fill="#12B769"/>
<path d="M743.173 37.3786L753.141 26.0735V48.6836H733.205L743.173 37.3786Z" fill="#36D183"/>
<path d="M868.653 135.799L858.685 147.104L858.685 124.494L878.621 124.494L868.653 135.799Z" fill="#12B76A"/>
<path d="M1233.37 48.0187L1223.4 59.3237L1223.4 36.7136L1243.34 36.7136L1233.37 48.0187Z" fill="#057747"/>
</g>
<defs>
<clipPath id="clip0_442_933">
<rect width="1416" height="151.468" fill="white" transform="translate(0 0.196289)"/>
</clipPath>
</defs>
</svg>
