<svg width="97" height="32" viewBox="0 0 97 32" fill="none" xmlns="http://www.w3.org/2000/svg">
<path fill-rule="evenodd" clip-rule="evenodd" d="M10.1874 3.33301C8.03641 3.33301 6.04882 4.4766 4.97332 6.33301L1.11105 12.9997C0.0355558 14.8561 0.0355539 17.1433 1.11105 18.9997L4.97332 25.6663C6.04882 27.5227 8.03641 28.6663 10.1874 28.6663H17.9119C20.0629 28.6663 22.0505 27.5227 23.126 25.6663L26.9883 18.9997C28.0638 17.1433 28.0638 14.8561 26.9883 12.9997L23.126 6.33301C22.0505 4.4766 20.0629 3.33301 17.9119 3.33301H10.1874ZM17.9119 7.333H13.0841C12.3116 7.333 11.829 8.16627 12.2158 8.8326C13.4092 10.8885 14.6055 12.9428 15.7971 14.9997C16.1556 15.6185 16.1556 16.3809 15.7971 16.9997C14.6055 19.0566 13.4092 21.1109 12.2158 23.1667C11.829 23.8331 12.3116 24.6663 13.0841 24.6663H17.9119C18.6289 24.6663 19.2915 24.2851 19.65 23.6663L23.5123 16.9997C23.8708 16.3809 23.8708 15.6185 23.5123 14.9997L19.65 8.333C19.2915 7.7142 18.6289 7.333 17.9119 7.333Z" fill="white"/>
<path d="M44.8093 13.684H41.7749C41.4317 12.478 40.5647 11.83 39.3365 11.83C37.4761 11.83 36.4105 13.378 36.4105 15.898C36.4105 18.436 37.4581 19.93 39.3365 19.93C40.4925 19.93 41.3956 19.318 41.7388 18.166H44.8093C44.1771 20.866 41.9916 22.288 39.3726 22.288C35.706 22.288 33.4483 19.858 33.4483 15.898C33.4483 11.938 35.706 9.47198 39.4088 9.47198C42.0458 9.47198 44.2855 10.894 44.8093 13.684Z" fill="white"/>
<path d="M50.2689 22.288C47.3248 22.288 45.5005 20.344 45.5005 17.158C45.5005 13.864 47.3789 12.01 50.2689 12.01C53.213 12.01 55.0553 13.99 55.0553 17.158C55.0553 20.434 53.1588 22.288 50.2689 22.288ZM50.2689 20.056C51.5513 20.056 52.2196 19.048 52.2196 17.158C52.2196 15.286 51.5332 14.242 50.2689 14.242C49.0045 14.242 48.3362 15.268 48.3362 17.158C48.3362 19.03 49.0226 20.056 50.2689 20.056Z" fill="white"/>
<path d="M56.1556 22V12.316H58.919V13.666C59.5331 12.514 60.4724 12.01 61.4658 12.01C61.8632 12.01 62.2244 12.118 62.4231 12.316V14.638C62.098 14.566 61.7548 14.53 61.3213 14.53C59.6596 14.53 58.919 15.466 58.919 16.996V22H56.1556Z" fill="white"/>
<path d="M72.1486 18.814C71.6429 21.046 69.8367 22.288 67.4525 22.288C64.4359 22.288 62.5755 20.344 62.5755 17.158C62.5755 13.864 64.454 12.01 67.3441 12.01C70.2521 12.01 72.0763 13.936 72.0763 17.104V17.716H65.3932C65.5377 19.264 66.2602 20.092 67.4525 20.092C68.3556 20.092 68.9697 19.696 69.2587 18.814H72.1486ZM67.3441 14.206C66.3143 14.206 65.6641 14.872 65.4474 16.132H69.2225C69.0058 14.872 68.3556 14.206 67.3441 14.206Z" fill="white"/>
<path d="M79.1547 22.288C75.3436 22.288 72.9955 19.84 72.9955 15.898C72.9955 11.938 75.3436 9.47198 79.1547 9.47198C82.9477 9.47198 85.2958 11.938 85.2958 15.898C85.2958 19.84 82.9477 22.288 79.1547 22.288ZM79.1547 19.93C81.1596 19.93 82.3336 18.418 82.3336 15.898C82.3336 13.378 81.1596 11.83 79.1547 11.83C77.1317 11.83 75.9577 13.36 75.9577 15.898C75.9577 18.418 77.1317 19.93 79.1547 19.93Z" fill="white"/>
<path d="M89.2841 12.91C89.2841 15.52 96.509 13.306 96.509 18.31C96.509 20.83 94.4138 22.288 91.5419 22.288C88.6339 22.288 86.5568 20.956 86.1233 18.166H89.1758C89.4106 19.372 90.2595 20.038 91.56 20.038C92.8604 20.038 93.5468 19.516 93.5468 18.67C93.5468 15.934 86.3039 18.022 86.3039 13.18C86.3039 11.128 88.0198 9.47198 91.0362 9.47198C93.5829 9.47198 95.7865 10.678 96.1658 13.504H93.0772C92.8243 12.298 92.1199 11.722 90.9278 11.722C89.9163 11.722 89.2841 12.19 89.2841 12.91Z" fill="white"/>
</svg>
