<svg width="135" height="32" viewBox="0 0 135 32" fill="none" xmlns="http://www.w3.org/2000/svg">
<path d="M9.4766 3.33331C9.4766 8.58005 5.23378 12.8333 0 12.8333V19.1666H9.4766V28.6666H15.7943C15.7943 23.4199 20.0371 19.1666 25.2709 19.1666V12.8333H15.7943V3.33331H9.4766Z" fill="white"/>
<path d="M37.3744 22.2399C35.9645 22.2399 34.7542 21.9399 33.7433 21.3399C32.7325 20.7266 31.9544 19.8799 31.4091 18.7999C30.8638 17.7066 30.5911 16.4466 30.5911 15.0199C30.5911 13.5932 30.8638 12.3332 31.4091 11.2399C31.9544 10.1466 32.7325 9.29322 33.7433 8.67989C34.7542 8.06655 35.9645 7.75989 37.3744 7.75989C39.0502 7.75989 40.4202 8.17989 41.4842 9.01989C42.5616 9.84655 43.2332 11.0132 43.4993 12.5199H40.6862C40.5133 11.7599 40.1409 11.1666 39.569 10.7399C39.0103 10.2999 38.2655 10.0799 37.3345 10.0799C36.0443 10.0799 35.0335 10.5199 34.302 11.3999C33.5704 12.2799 33.2047 13.4866 33.2047 15.0199C33.2047 16.5532 33.5704 17.7599 34.302 18.6399C35.0335 19.5066 36.0443 19.9399 37.3345 19.9399C38.2655 19.9399 39.0103 19.7399 39.569 19.3399C40.1409 18.9266 40.5133 18.3599 40.6862 17.6399H43.4993C43.2332 19.0799 42.5616 20.2066 41.4842 21.0199C40.4202 21.8332 39.0502 22.2399 37.3744 22.2399Z" fill="white"/>
<path d="M44.5028 21.9999V7.59991H47.0565V21.9999H44.5028Z" fill="white"/>
<path d="M53.0176 22.2399C52.0866 22.2399 51.2553 22.0132 50.5238 21.5599C49.7922 21.1066 49.2137 20.4866 48.7881 19.6999C48.3624 18.9132 48.1496 18.0199 48.1496 17.0199C48.1496 16.0199 48.3624 15.1332 48.7881 14.3599C49.2137 13.5732 49.7922 12.9599 50.5238 12.5199C51.2553 12.0666 52.0866 11.8399 53.0176 11.8399C53.7624 11.8399 54.4142 11.9799 54.9728 12.2599C55.5314 12.5399 55.9836 12.9332 56.3294 13.4399L56.4691 12.0799H58.8831V21.9999H56.489L56.3294 20.5799C56.0102 21.0199 55.5846 21.4066 55.0526 21.7399C54.5339 22.0732 53.8555 22.2399 53.0176 22.2399ZM53.5563 19.9999C54.3809 19.9999 55.0526 19.7266 55.5713 19.1799C56.1033 18.6199 56.3693 17.9066 56.3693 17.0399C56.3693 16.1732 56.1033 15.4666 55.5713 14.9199C55.0526 14.3599 54.3809 14.0799 53.5563 14.0799C52.7449 14.0799 52.0733 14.3532 51.5413 14.8999C51.0092 15.4466 50.7432 16.1532 50.7432 17.0199C50.7432 17.8866 51.0092 18.5999 51.5413 19.1599C52.0733 19.7199 52.7449 19.9999 53.5563 19.9999Z" fill="white"/>
<path d="M60.2865 21.9999V12.0799H62.541L62.7405 13.7599C63.0464 13.1732 63.4853 12.7066 64.0572 12.3599C64.6424 12.0132 65.3274 11.8399 66.1121 11.8399C67.3357 11.8399 68.2867 12.2266 68.965 12.9999C69.6434 13.7732 69.9825 14.9066 69.9825 16.3999V21.9999H67.4288V16.6399C67.4288 15.7866 67.2559 15.1332 66.9101 14.6799C66.5643 14.2266 66.0257 13.9999 65.2942 13.9999C64.5759 13.9999 63.9841 14.2532 63.5185 14.7599C63.0663 15.2666 62.8402 15.9732 62.8402 16.8799V21.9999H60.2865Z" fill="white"/>
<path d="M75.7762 22.2399C74.8452 22.2399 74.0139 22.0132 73.2824 21.5599C72.5508 21.1066 71.9723 20.4866 71.5467 19.6999C71.121 18.9132 70.9082 18.0199 70.9082 17.0199C70.9082 16.0199 71.121 15.1332 71.5467 14.3599C71.9723 13.5732 72.5508 12.9599 73.2824 12.5199C74.0139 12.0666 74.8452 11.8399 75.7762 11.8399C76.521 11.8399 77.1728 11.9799 77.7314 12.2599C78.29 12.5399 78.7422 12.9332 79.088 13.4399V7.59991H81.6417V21.9999H79.3673L79.088 20.5799C78.7688 21.0199 78.3432 21.4066 77.8112 21.7399C77.2925 22.0732 76.6141 22.2399 75.7762 22.2399ZM76.3149 19.9999C77.1395 19.9999 77.8112 19.7266 78.3299 19.1799C78.8619 18.6199 79.1279 17.9066 79.1279 17.0399C79.1279 16.1732 78.8619 15.4666 78.3299 14.9199C77.8112 14.3599 77.1395 14.0799 76.3149 14.0799C75.5036 14.0799 74.8319 14.3532 74.2999 14.8999C73.7678 15.4466 73.5018 16.1532 73.5018 17.0199C73.5018 17.8866 73.7678 18.5999 74.2999 19.1599C74.8319 19.7199 75.5036 19.9999 76.3149 19.9999Z" fill="white"/>
<path d="M87.8531 22.2399C86.8555 22.2399 85.9711 22.0266 85.1996 21.5999C84.4282 21.1732 83.823 20.5732 83.3841 19.7999C82.9452 19.0266 82.7257 18.1332 82.7257 17.1199C82.7257 16.0932 82.9386 15.1799 83.3642 14.3799C83.8031 13.5799 84.4016 12.9599 85.1597 12.5199C85.9312 12.0666 86.8356 11.8399 87.873 11.8399C88.844 11.8399 89.7019 12.0532 90.4467 12.4799C91.1915 12.9066 91.7701 13.4932 92.1824 14.2399C92.608 14.9732 92.8208 15.7932 92.8208 16.6999C92.8208 16.8466 92.8142 16.9999 92.8009 17.1599C92.8009 17.3199 92.7942 17.4866 92.7809 17.6599H85.2595C85.3127 18.4332 85.5787 19.0399 86.0575 19.4799C86.5496 19.9199 87.1415 20.1399 87.8331 20.1399C88.3518 20.1399 88.7841 20.0266 89.1299 19.7999C89.489 19.5599 89.7551 19.2532 89.928 18.8799H92.5216C92.3353 19.5066 92.0228 20.0799 91.5839 20.5999C91.1582 21.1066 90.6262 21.5066 89.9878 21.7999C89.3627 22.0932 88.6511 22.2399 87.8531 22.2399ZM87.873 13.9199C87.2479 13.9199 86.6959 14.0999 86.2171 14.4599C85.7383 14.8066 85.4324 15.3399 85.2994 16.0599H90.2272C90.1873 15.4066 89.9479 14.8866 89.509 14.4999C89.0701 14.1132 88.5248 13.9199 87.873 13.9199Z" fill="white"/>
<path d="M97.8617 22.2399C96.9839 22.2399 96.2124 22.0999 95.5474 21.8199C94.8824 21.5266 94.3504 21.1266 93.9513 20.6199C93.5523 20.1132 93.3129 19.5266 93.2331 18.8599H95.8068C95.8866 19.2466 96.0994 19.5799 96.4452 19.8599C96.8043 20.1266 97.2632 20.2599 97.8218 20.2599C98.3804 20.2599 98.7861 20.1466 99.0388 19.9199C99.3048 19.6932 99.4378 19.4332 99.4378 19.1399C99.4378 18.7132 99.2516 18.4266 98.8792 18.2799C98.5068 18.1199 97.988 17.9666 97.323 17.8199C96.8974 17.7266 96.4651 17.6132 96.0262 17.4799C95.5873 17.3466 95.1816 17.1799 94.8092 16.9799C94.4501 16.7666 94.1575 16.4999 93.9314 16.1799C93.7053 15.8466 93.5922 15.4399 93.5922 14.9599C93.5922 14.0799 93.938 13.3399 94.6297 12.7399C95.3346 12.1399 96.3188 11.8399 97.5824 11.8399C98.7528 11.8399 99.6839 12.1132 100.375 12.6599C101.08 13.2066 101.499 13.9599 101.632 14.9199H99.2183C99.072 14.1866 98.5201 13.8199 97.5624 13.8199C97.0836 13.8199 96.7112 13.9132 96.4452 14.0999C96.1925 14.2866 96.0661 14.5199 96.0661 14.7999C96.0661 15.0932 96.259 15.3266 96.6447 15.4999C97.0304 15.6732 97.5425 15.8332 98.1809 15.9799C98.8725 16.1399 99.5043 16.3199 100.076 16.5199C100.661 16.7066 101.127 16.9932 101.473 17.3799C101.819 17.7532 101.991 18.2932 101.991 18.9999C102.005 19.6132 101.845 20.1666 101.513 20.6599C101.18 21.1532 100.701 21.5399 100.076 21.8199C99.4511 22.0999 98.7129 22.2399 97.8617 22.2399Z" fill="white"/>
<path d="M107.154 21.9999C106.117 21.9999 105.285 21.7466 104.66 21.2399C104.035 20.7333 103.723 19.8333 103.723 18.5399V14.2199H102.027V12.0799H103.723L104.022 9.41992H106.276V12.0799H108.95V14.2199H106.941C106.574 14.2199 106.276 14.5184 106.276 14.8866V18.5599C106.276 19.0399 106.376 19.3733 106.575 19.5599C106.788 19.7333 107.147 19.8199 107.653 19.8199H108.89V21.9999H107.154Z" fill="white"/>
<path d="M111.322 10.5399C110.856 10.5399 110.471 10.3999 110.165 10.1199C109.872 9.83991 109.726 9.48658 109.726 9.05991C109.726 8.63325 109.872 8.28658 110.165 8.01991C110.471 7.73991 110.856 7.59991 111.322 7.59991C111.787 7.59991 112.166 7.73991 112.459 8.01991C112.765 8.28658 112.918 8.63325 112.918 9.05991C112.918 9.48658 112.765 9.83991 112.459 10.1199C112.166 10.3999 111.787 10.5399 111.322 10.5399ZM110.045 21.9999V12.0799H112.599V21.9999H110.045Z" fill="white"/>
<path d="M114.067 21.9999V12.0799H116.321L116.521 13.7599C116.827 13.1732 117.266 12.7066 117.838 12.3599C118.423 12.0132 119.108 11.8399 119.893 11.8399C121.116 11.8399 122.067 12.2266 122.746 12.9999C123.424 13.7732 123.763 14.9066 123.763 16.3999V21.9999H121.209V16.6399C121.209 15.7866 121.036 15.1332 120.691 14.6799C120.345 14.2266 119.806 13.9999 119.075 13.9999C118.356 13.9999 117.765 14.2532 117.299 14.7599C116.847 15.2666 116.621 15.9732 116.621 16.8799V21.9999H114.067Z" fill="white"/>
<path d="M129.816 22.2399C128.819 22.2399 127.934 22.0266 127.163 21.5999C126.391 21.1732 125.786 20.5732 125.347 19.7999C124.908 19.0266 124.689 18.1332 124.689 17.1199C124.689 16.0932 124.902 15.1799 125.327 14.3799C125.766 13.5799 126.365 12.9599 127.123 12.5199C127.894 12.0666 128.799 11.8399 129.836 11.8399C130.807 11.8399 131.665 12.0532 132.41 12.4799C133.155 12.9066 133.733 13.4932 134.145 14.2399C134.571 14.9732 134.784 15.7932 134.784 16.6999C134.784 16.8466 134.777 16.9999 134.764 17.1599C134.764 17.3199 134.757 17.4866 134.744 17.6599H127.223C127.276 18.4332 127.542 19.0399 128.021 19.4799C128.513 19.9199 129.105 20.1399 129.796 20.1399C130.315 20.1399 130.747 20.0266 131.093 19.7999C131.452 19.5599 131.718 19.2532 131.891 18.8799H134.485C134.298 19.5066 133.986 20.0799 133.547 20.5999C133.121 21.1066 132.589 21.5066 131.951 21.7999C131.326 22.0932 130.614 22.2399 129.816 22.2399ZM129.836 13.9199C129.211 13.9199 128.659 14.0999 128.18 14.4599C127.701 14.8066 127.395 15.3399 127.262 16.0599H132.19C132.15 15.4066 131.911 14.8866 131.472 14.4999C131.033 14.1132 130.488 13.9199 129.836 13.9199Z" fill="white"/>
</svg>
