<svg width="104" height="32" viewBox="0 0 104 32" fill="none" xmlns="http://www.w3.org/2000/svg">
<path fill-rule="evenodd" clip-rule="evenodd" d="M13.4194 29.3334C20.8307 29.3334 26.8387 23.3638 26.8387 16C26.8387 8.63622 20.8307 2.66669 13.4194 2.66669C6.00803 2.66669 0 8.63622 0 16C0 23.3638 6.00803 29.3334 13.4194 29.3334ZM17.6057 8.87789C17.8095 8.15875 17.1071 7.73342 16.4655 8.18755L7.51021 14.5264C6.81448 15.0189 6.92392 16 7.6746 16H10.0328V15.9819H14.6288L10.8839 17.2948L9.23299 23.1222C9.02921 23.8414 9.73158 24.2666 10.3732 23.8125L19.3285 17.4737C20.0242 16.9812 19.9147 16 19.1641 16H15.588L17.6057 8.87789Z" fill="white"/>
<path d="M86.5528 11.2481C86.8534 11.5218 87.2164 11.6587 87.6425 11.6587C88.0806 11.6587 88.4436 11.5218 88.7321 11.2481C89.02 10.9743 89.1642 10.6134 89.1642 10.1654C89.1642 9.71739 89.02 9.35646 88.7321 9.08272C88.4436 8.80892 88.0806 8.67206 87.6425 8.67206C87.2164 8.67206 86.8534 8.80892 86.5528 9.08272C86.2643 9.35646 86.1207 9.71739 86.1207 10.1654C86.1207 10.6134 86.2643 10.9743 86.5528 11.2481Z" fill="white"/>
<path fill-rule="evenodd" clip-rule="evenodd" d="M41.5893 21.5894C41.0006 21.8631 40.3118 22.0001 39.5227 22.0001H33.5484V8.93341H39.4475C40.2492 8.93341 40.9443 9.07028 41.5329 9.34408C42.1341 9.60541 42.5975 9.98494 42.9232 10.4827C43.2613 10.9681 43.4304 11.5529 43.4304 12.2374V12.4241C43.4304 13.0214 43.3177 13.5129 43.0922 13.8987C42.8668 14.2721 42.5975 14.5645 42.2844 14.7761C41.9838 14.9751 41.6958 15.1183 41.4202 15.2054V15.5414C41.6958 15.6161 41.9964 15.7591 42.322 15.9707C42.6476 16.1698 42.9232 16.4623 43.1486 16.8481C43.3866 17.2338 43.5056 17.7378 43.5056 18.3601V18.5467C43.5056 19.2685 43.3365 19.8907 42.9983 20.4134C42.6601 20.9236 42.1905 21.3156 41.5893 21.5894ZM40.5372 16.9414C40.2116 16.6801 39.7732 16.5494 39.2221 16.5494H36.0283V19.7601H39.2221C39.7607 19.7601 40.1928 19.6294 40.5184 19.3681C40.8566 19.1067 41.0257 18.7334 41.0257 18.2481V18.0614C41.0257 17.5761 40.8628 17.2027 40.5372 16.9414ZM40.4621 11.5654C40.1364 11.3041 39.7106 11.1734 39.1845 11.1734H36.0283V14.3094H39.1845C39.698 14.3094 40.1176 14.1787 40.4433 13.9174C40.7814 13.6561 40.9505 13.2951 40.9505 12.8347V12.6481C40.9505 12.1751 40.7877 11.8143 40.4621 11.5654Z" fill="white"/>
<path fill-rule="evenodd" clip-rule="evenodd" d="M49.0984 22.2614C48.1715 22.2614 47.3386 22.0747 46.5997 21.7014C45.8607 21.328 45.2783 20.7867 44.8525 20.0774C44.4266 19.368 44.2137 18.5156 44.2137 17.52V17.2214C44.2137 16.2258 44.4266 15.3734 44.8525 14.664C45.2783 13.9547 45.8607 13.4134 46.5997 13.04C47.3386 12.6667 48.1715 12.48 49.0984 12.48C50.0252 12.48 50.8581 12.6667 51.5971 13.04C52.336 13.4134 52.9184 13.9547 53.3443 14.664C53.7701 15.3734 53.983 16.2258 53.983 17.2214V17.52C53.983 18.5156 53.7701 19.368 53.3443 20.0774C52.9184 20.7867 52.336 21.328 51.5971 21.7014C50.8581 22.0747 50.0252 22.2614 49.0984 22.2614ZM49.0984 20.1707C49.8248 20.1707 50.426 19.9404 50.902 19.48C51.3779 19.0071 51.6159 18.3351 51.6159 17.464V17.2774C51.6159 16.4062 51.3779 15.7404 50.902 15.28C50.4385 14.8071 49.8373 14.5707 49.0984 14.5707C48.3719 14.5707 47.7707 14.8071 47.2948 15.28C46.8188 15.7404 46.5809 16.4062 46.5809 17.2774V17.464C46.5809 18.3351 46.8188 19.0071 47.2948 19.48C47.7707 19.9404 48.3719 20.1707 49.0984 20.1707Z" fill="white"/>
<path d="M62.8492 22C62.2355 22 61.7346 21.8134 61.3463 21.44C60.9705 21.0542 60.7827 20.544 60.7827 19.9094V14.6827H58.4531V12.7414H60.7827V9.8667H63.1498V12.7414H65.7049V14.6827H63.1498V19.4987C63.1498 19.872 63.3252 20.0587 63.6759 20.0587H65.4794V22H62.8492Z" fill="white"/>
<path d="M67.7912 21.4774C68.5675 22 69.5633 22.2614 70.7784 22.2614C71.968 22.2614 72.9141 22 73.6152 21.4774C74.3291 20.9422 74.6861 20.1894 74.6861 19.2187C74.6861 18.5716 74.517 18.0614 74.1788 17.688C73.8534 17.3022 73.4025 17.0098 72.8262 16.8107C72.2626 16.5991 71.6298 16.4311 70.9287 16.3067L70.4026 16.2134C69.9766 16.1387 69.6384 16.0329 69.3881 15.896C69.1379 15.7467 69.0124 15.5227 69.0124 15.224C69.0124 14.9502 69.1312 14.7387 69.3694 14.5894C69.6075 14.4276 69.9518 14.3467 70.4026 14.3467C70.8535 14.3467 71.2293 14.4462 71.5299 14.6454C71.8432 14.8444 72.0499 15.1804 72.1498 15.6534L74.3479 14.9814C74.1352 14.2347 73.6843 13.6311 72.9953 13.1707C72.3062 12.7102 71.442 12.48 70.4026 12.48C69.3002 12.48 68.4112 12.7289 67.7349 13.2267C67.0585 13.712 66.7204 14.4151 66.7204 15.336C66.7204 15.9458 66.8832 16.4436 67.2088 16.8294C67.5343 17.2151 67.9664 17.52 68.5051 17.744C69.0439 17.9556 69.6384 18.1236 70.2899 18.248L70.816 18.3414C71.3668 18.4409 71.7681 18.5716 72.0183 18.7334C72.2686 18.8827 72.3941 19.1004 72.3941 19.3867C72.3941 19.6729 72.2626 19.9156 71.9995 20.1147C71.7365 20.3014 71.3292 20.3947 70.7784 20.3947C70.4154 20.3947 70.0772 20.3449 69.7639 20.2454C69.4633 20.1334 69.2063 19.9529 68.9936 19.704C68.793 19.4551 68.6494 19.1129 68.5615 18.6774L66.3822 19.2374C66.545 20.208 67.0147 20.9547 67.7912 21.4774Z" fill="white"/>
<path d="M78.7897 15.2987C78.3885 15.7716 78.1886 16.4374 78.1886 17.2961V22.0001H75.8214V8.93341H78.1886V13.8801H78.5267C78.6267 13.6809 78.783 13.4818 78.9964 13.2827C79.2091 13.0836 79.4909 12.9218 79.8418 12.7974C80.2048 12.6605 80.6617 12.5921 81.2133 12.5921C81.9393 12.5921 82.572 12.7601 83.1108 13.0961C83.6616 13.4196 84.0877 13.8738 84.3883 14.4587C84.6889 15.0311 84.8392 15.7031 84.8392 16.4747V22.0001H82.472V16.6614C82.472 15.9645 82.2962 15.4418 81.946 15.0934C81.6078 14.7449 81.1193 14.5707 80.4806 14.5707C79.7539 14.5707 79.1903 14.8134 78.7897 15.2987Z" fill="white"/>
<path d="M99.6361 21.4401C99.2603 21.0543 99.0724 20.5441 99.0724 19.9094V14.6827H94.4173V22.0001H92.0501V14.6827H89.6829V12.7414H92.0501V11.0241C92.0501 10.3894 92.238 9.88541 92.6137 9.51208C93.0022 9.12628 93.5027 8.93341 94.1167 8.93341H96.559V10.8747H94.9433C94.5924 10.8747 94.4173 11.0614 94.4173 11.4347V12.7414H99.0724V9.86674H101.44V12.7414H103.995V14.6827H101.44V19.4987C101.44 19.8721 101.615 20.0587 101.966 20.0587H103.769V22.0001H101.139C100.525 22.0001 100.025 21.8134 99.6361 21.4401Z" fill="white"/>
<path d="M86.4589 12.7414V22.0001H88.8261V12.7414H86.4589Z" fill="white"/>
<path d="M55.2287 8.93341V22.0001H57.5959V8.93341H55.2287Z" fill="white"/>
</svg>
