<svg width="135" height="32" viewBox="0 0 135 32" fill="none" xmlns="http://www.w3.org/2000/svg">
<path d="M0 6.00002C0 4.15907 1.49608 2.66669 3.34158 2.66669H10.0248C11.8702 2.66669 13.3663 4.15907 13.3663 6.00002V12.5462C13.3665 12.5862 13.3665 12.6264 13.3665 12.6667C13.3665 14.505 14.8584 15.9958 16.7002 16H16.7079H23.3911C25.2366 16 26.7327 17.4924 26.7327 19.3334V26C26.7327 27.841 25.2366 29.3334 23.3911 29.3334H16.7079C14.8624 29.3334 13.3663 27.841 13.3663 26V19.3334C13.3663 19.3241 13.3664 19.3149 13.3665 19.3056C13.3515 17.4775 11.8612 16 10.025 16C10.0163 16 10.0077 16 9.99909 16H3.34158C1.49608 16 0 14.5076 0 12.6667L0 6.00002Z" fill="white"/>
<path fill-rule="evenodd" clip-rule="evenodd" d="M62.9237 22.24C61.9881 22.24 61.1527 22.0133 60.4175 21.56C59.6824 21.1066 59.1009 20.4866 58.6732 19.7C58.2455 18.9133 58.0316 18.02 58.0316 17.02C58.0316 16.02 58.2455 15.1333 58.6732 14.36C59.1009 13.5733 59.6824 12.96 60.4175 12.52C61.1527 12.0666 61.9881 11.84 62.9237 11.84C63.6722 11.84 64.3272 11.98 64.8885 12.26C65.4499 12.54 65.9044 12.9333 66.2519 13.44V7.59998H68.8186V22H66.5326L66.2519 20.58C65.9311 21.02 65.5034 21.4066 64.9687 21.74C64.4475 22.0733 63.7658 22.24 62.9237 22.24ZM63.465 20C64.2937 20 64.9687 19.7266 65.49 19.18C66.0247 18.62 66.292 17.9066 66.292 17.04C66.292 16.1733 66.0247 15.4666 65.49 14.92C64.9687 14.36 64.2937 14.08 63.465 14.08C62.6497 14.08 61.9747 14.3533 61.44 14.9C60.9054 15.4466 60.6381 16.1533 60.6381 17.02C60.6381 17.8866 60.9054 18.6 61.44 19.16C61.9747 19.72 62.6497 20 63.465 20Z" fill="white"/>
<path d="M36.5837 21.3399C37.5995 21.9399 38.8158 22.2399 40.2327 22.2399C41.9168 22.2399 43.2936 21.8333 44.3629 21.0199C45.4455 20.2066 46.1205 19.0799 46.3879 17.6399H43.5609C43.3871 18.3599 43.0129 18.9266 42.4381 19.3399C41.8767 19.7399 41.1282 19.9399 40.1926 19.9399C38.896 19.9399 37.8802 19.5066 37.145 18.6399C36.4099 17.7599 36.0423 16.5533 36.0423 15.0199C36.0423 13.4866 36.4099 12.2799 37.145 11.3999C37.8802 10.5199 38.896 10.0799 40.1926 10.0799C41.1282 10.0799 41.8767 10.2999 42.4381 10.7399C43.0129 11.1666 43.3871 11.7599 43.5609 12.5199H46.3879C46.1205 11.0133 45.4455 9.84661 44.3629 9.01995C43.2936 8.17995 41.9168 7.75995 40.2327 7.75995C38.8158 7.75995 37.5995 8.06662 36.5837 8.67995C35.5678 9.29328 34.7859 10.1466 34.2379 11.2399C33.6898 12.3333 33.4158 13.5933 33.4158 15.0199C33.4158 16.4466 33.6898 17.7066 34.2379 18.7999C34.7859 19.8799 35.5678 20.7266 36.5837 21.3399Z" fill="white"/>
<path fill-rule="evenodd" clip-rule="evenodd" d="M49.5618 21.58C50.337 22.02 51.2058 22.24 52.1682 22.24C53.1172 22.24 53.9793 22.02 54.7546 21.58C55.5298 21.14 56.138 20.5333 56.5791 19.76C57.0336 18.9733 57.2608 18.0666 57.2608 17.04C57.2608 16.0133 57.0336 15.1133 56.5791 14.34C56.138 13.5533 55.5298 12.94 54.7546 12.5C53.9927 12.06 53.1373 11.84 52.1883 11.84C51.2259 11.84 50.3571 12.06 49.5818 12.5C48.8199 12.94 48.2118 13.5533 47.7573 14.34C47.3029 15.1133 47.0756 16.0133 47.0756 17.04C47.0756 18.0666 47.2962 18.9733 47.7373 19.76C48.1917 20.5333 48.7999 21.14 49.5618 21.58ZM53.9125 19.28C53.418 19.7733 52.8365 20.02 52.1682 20.02C51.4999 20.02 50.9185 19.7733 50.4239 19.28C49.9427 18.7733 49.7021 18.0266 49.7021 17.04C49.7021 16.0533 49.9427 15.3133 50.4239 14.82C50.9185 14.3133 51.5066 14.06 52.1883 14.06C52.8432 14.06 53.418 14.3133 53.9125 14.82C54.4071 15.3133 54.6543 16.0533 54.6543 17.04C54.6543 18.0266 54.4071 18.7733 53.9125 19.28Z" fill="white"/>
<path fill-rule="evenodd" clip-rule="evenodd" d="M72.3941 21.6C73.1693 22.0266 74.0582 22.24 75.0607 22.24C75.8627 22.24 76.5777 22.0933 77.206 21.8C77.8476 21.5066 78.3822 21.1066 78.8099 20.6C79.251 20.08 79.5651 19.5066 79.7523 18.88H77.1458C76.9721 19.2533 76.7047 19.56 76.3438 19.8C75.9963 20.0266 75.5619 20.14 75.0406 20.14C74.3456 20.14 73.7508 19.92 73.2562 19.48C72.775 19.04 72.5077 18.4333 72.4542 17.66H80.0129C80.0263 17.4866 80.0329 17.32 80.0329 17.16C80.0463 17 80.053 16.8466 80.053 16.7C80.053 15.7933 79.8391 14.9733 79.4114 14.24C78.9971 13.4933 78.4156 12.9066 77.6671 12.48C76.9186 12.0533 76.0565 11.84 75.0807 11.84C74.0381 11.84 73.1292 12.0666 72.354 12.52C71.5921 12.96 70.9906 13.58 70.5495 14.38C70.1218 15.18 69.9079 16.0933 69.9079 17.12C69.9079 18.1333 70.1285 19.0266 70.5696 19.8C71.0107 20.5733 71.6188 21.1733 72.3941 21.6ZM73.4166 14.46C73.8978 14.1 74.4525 13.92 75.0807 13.92C75.7357 13.92 76.2837 14.1133 76.7248 14.5C77.1659 14.8866 77.4065 15.4066 77.4466 16.06H72.4943C72.628 15.34 72.9354 14.8066 73.4166 14.46Z" fill="white"/>
<path d="M85.8807 22.24C84.8649 22.24 83.9693 22.02 83.1941 21.58C82.4188 21.14 81.804 20.5266 81.3495 19.74C80.9078 18.9533 80.6879 18.0533 80.6879 17.04C80.6879 16.0266 80.9078 15.1266 81.3495 14.34C81.804 13.5533 82.4188 12.94 83.1941 12.5C83.9693 12.06 84.8649 11.84 85.8807 11.84C87.1505 11.84 88.2198 12.1733 89.0886 12.84C89.9574 13.4933 90.5122 14.4 90.7527 15.56H88.0461C87.9124 15.08 87.6451 14.7066 87.2441 14.44C86.8565 14.16 86.3953 14.02 85.8607 14.02C85.1523 14.02 84.5508 14.2866 84.0562 14.82C83.5617 15.3533 83.3144 16.0933 83.3144 17.04C83.3144 17.9866 83.5617 18.7266 84.0562 19.26C84.5508 19.7933 85.1523 20.06 85.8607 20.06C86.3953 20.06 86.8565 19.9266 87.2441 19.66C87.6451 19.3933 87.9124 19.0133 88.0461 18.52H90.7527C90.5122 19.64 89.9574 20.54 89.0886 21.22C88.2198 21.9 87.1505 22.24 85.8807 22.24Z" fill="white"/>
<path d="M94.3536 13.94L94.113 12.08H91.8274V22H94.3937V17.48C94.3937 16.72 94.514 16.1266 94.7546 15.7C95.0086 15.2733 95.3561 14.9733 95.7972 14.8C96.2383 14.6266 96.7395 14.54 97.3009 14.54H98.0227V11.84C97.1806 11.84 96.4455 12.0333 95.8172 12.42C95.2024 12.7933 94.7145 13.3 94.3536 13.94Z" fill="white"/>
<path fill-rule="evenodd" clip-rule="evenodd" d="M102.002 22.24C101.146 22.24 100.445 22.1066 99.8967 21.84C99.3486 21.56 98.941 21.1933 98.6736 20.74C98.4063 20.2866 98.2726 19.7866 98.2726 19.24C98.2726 18.32 98.6335 17.5733 99.3553 17C100.077 16.4266 101.16 16.14 102.603 16.14H105.13V15.9C105.13 15.22 104.936 14.72 104.548 14.4C104.161 14.08 103.679 13.92 103.105 13.92C102.583 13.92 102.129 14.0466 101.741 14.3C101.354 14.54 101.113 14.9 101.019 15.38H98.5132C98.5801 14.66 98.8207 14.0333 99.235 13.5C99.6627 12.9666 100.211 12.56 100.879 12.28C101.547 11.9866 102.296 11.84 103.125 11.84C104.541 11.84 105.658 12.1933 106.473 12.9C107.288 13.6066 107.696 14.6066 107.696 15.9V22H105.511L105.27 20.4C104.976 20.9333 104.562 21.3733 104.027 21.72C103.506 22.0666 102.831 22.24 102.002 22.24ZM102.583 20.24C103.318 20.24 103.887 20 104.287 19.52C104.702 19.04 104.962 18.4466 105.069 17.74H102.884C102.202 17.74 101.714 17.8666 101.42 18.12C101.126 18.36 100.979 18.66 100.979 19.02C100.979 19.4066 101.126 19.7066 101.42 19.92C101.714 20.1333 102.102 20.24 102.583 20.24Z" fill="white"/>
<path d="M110.306 8.35998C109.704 8.86664 109.403 9.71998 109.403 10.92V12.08H108.04V14.22H109.403V22H111.97V14.22H115.927V18.54C115.927 19.8333 116.241 20.7333 116.869 21.24C117.497 21.7466 118.333 22 119.375 22H121.12V19.82H119.877C119.369 19.82 119.008 19.7333 118.794 19.56C118.593 19.3733 118.493 19.04 118.493 18.56V14.22H121.18V12.08H118.493V9.41998H116.228L115.927 12.08H111.97V10.92C111.97 10.5066 112.063 10.2133 112.25 10.04C112.438 9.86664 112.752 9.77998 113.193 9.77998H113.895V7.59998H112.792C111.749 7.59998 110.921 7.85331 110.306 8.35998Z" fill="white"/>
<path d="M121.96 22.7599V25.1999H134.785V22.7599H121.96Z" fill="white"/>
</svg>
