<svg width="92" height="42" viewBox="0 0 92 42" fill="none" xmlns="http://www.w3.org/2000/svg">
<g clip-path="url(#clip0_2_20)">
<path d="M42 0H0V42H42V0Z" fill="#00FC65"/>
<path d="M17.8585 8.02325H27.8177L18.5225 20.3062H8.56332L17.8585 8.02325Z" fill="#111E14"/>
<path d="M28.4814 20.3062H18.5222L18.5222 34.415L28.4814 20.3062Z" fill="#111E14"/>
<path d="M34.1248 8.02325H27.8174L27.8174 16.6545L34.1248 8.02325Z" fill="#111E14"/>
</g>
<path d="M48.5907 8.696V13.0531H53.8163V8.696H55.568V19H53.8163V14.6282H48.5907V19H46.8538V8.696H48.5907ZM58.5563 11.1984V19H56.8635V11.1984H58.5563ZM56.9518 8.4752C57.1677 8.26912 57.4277 8.16608 57.732 8.16608C58.0362 8.16608 58.2913 8.26912 58.4974 8.4752C58.7133 8.67147 58.8212 8.92171 58.8212 9.22592C58.8212 9.53013 58.7182 9.78037 58.5121 9.97664C58.2962 10.1827 58.0362 10.2858 57.732 10.2858C57.4277 10.2858 57.1677 10.1876 56.9518 9.99136C56.7359 9.78528 56.628 9.53013 56.628 9.22592C56.628 8.93152 56.7359 8.68128 56.9518 8.4752ZM59.7832 11.1984H61.476V12.479C61.7213 11.9884 62.055 11.64 62.477 11.4339C62.9088 11.218 63.3504 11.1101 63.8018 11.1101C64.0177 11.1101 64.2434 11.1297 64.4789 11.169V12.9795C64.1747 12.8814 63.8852 12.8323 63.6104 12.8323C63.1688 12.8323 62.7027 12.9942 62.212 13.3181C61.7213 13.6419 61.476 14.216 61.476 15.0403V19H59.7832V11.1984ZM65.7753 12.2435C66.5604 11.4585 67.5024 11.0659 68.6015 11.0659C69.5829 11.0659 70.4366 11.3849 71.1628 12.0227C71.8988 12.6508 72.3502 13.4407 72.517 14.3926C72.5759 14.6282 72.6054 14.8637 72.6054 15.0992C72.6054 15.3053 72.5808 15.5114 72.5318 15.7174H66.261C66.3592 16.2964 66.6241 16.7577 67.0559 17.1011C67.4975 17.4446 68.0127 17.6163 68.6015 17.6163C69.5044 17.6163 70.2256 17.2925 70.7654 16.6448L72.2668 17.0422C71.9528 17.6703 71.4474 18.1757 70.7506 18.5584C70.0637 18.9313 69.3473 19.1178 68.6015 19.1178C67.473 19.1178 66.5211 18.7252 65.7458 17.9402C64.9804 17.1551 64.5977 16.2081 64.5977 15.0992C64.5977 13.9805 64.9902 13.0286 65.7753 12.2435ZM66.261 14.4221H70.8831C70.785 13.902 70.5249 13.4653 70.103 13.112C69.6908 12.7489 69.1854 12.5674 68.5868 12.5674C67.9882 12.5674 67.4779 12.7489 67.0559 13.112C66.634 13.4653 66.369 13.902 66.261 14.4221ZM76.8974 15.5408V14.0246H82.2408V15.5408H76.8974ZM54.1843 20.696V22.3152H48.5907V25.0531H53.5955V26.6429H48.5907V29.3808H54.1843V31H46.8538V20.696H54.1843ZM54.868 31L57.4146 27.0992L54.868 23.1984H56.7522L58.7394 26.1866L60.7118 23.1984H62.596L60.0494 27.0992L62.596 31H60.7118L58.7394 28.0118L56.7522 31H54.868ZM63.2907 23.1984H64.9835V24.2288C65.6017 23.4634 66.4359 23.0806 67.4859 23.0806C68.5556 23.0806 69.4682 23.4781 70.2238 24.273C70.9893 25.058 71.372 26.0001 71.372 27.0992C71.372 28.2179 70.9942 29.1698 70.2386 29.9549C69.4829 30.7301 68.5654 31.1178 67.4859 31.1178C66.4359 31.1178 65.6017 30.7252 64.9835 29.9402V34.0912H63.2907V23.1984ZM64.8657 27.0992C64.8657 27.7763 65.1062 28.3602 65.587 28.8509C66.0777 29.3415 66.6616 29.5869 67.3387 29.5869C68.0256 29.5869 68.6046 29.3465 69.0757 28.8656C69.5565 28.3749 69.797 27.7861 69.797 27.0992C69.797 26.4123 69.5614 25.8284 69.0904 25.3475C68.6193 24.8569 68.0355 24.6115 67.3387 24.6115C66.6616 24.6115 66.0777 24.8569 65.587 25.3475C65.1062 25.8382 64.8657 26.4221 64.8657 27.0992ZM73.0778 24.2435C73.8629 23.4585 74.8049 23.0659 75.904 23.0659C76.8854 23.0659 77.7391 23.3849 78.4653 24.0227C79.2013 24.6508 79.6527 25.4407 79.8195 26.3926C79.8784 26.6282 79.9079 26.8637 79.9079 27.0992C79.9079 27.3053 79.8833 27.5114 79.8343 27.7174H73.5635C73.6617 28.2964 73.9266 28.7577 74.3584 29.1011C74.8 29.4446 75.3152 29.6163 75.904 29.6163C76.8069 29.6163 77.5281 29.2925 78.0679 28.6448L79.5693 29.0422C79.2553 29.6703 78.7499 30.1757 78.0531 30.5584C77.3662 30.9313 76.6498 31.1178 75.904 31.1178C74.7755 31.1178 73.8236 30.7252 73.0483 29.9402C72.2829 29.1551 71.9002 28.2081 71.9002 27.0992C71.9002 25.9805 72.2927 25.0286 73.0778 24.2435ZM73.5635 26.4221H78.1856C78.0875 25.902 77.8274 25.4653 77.4055 25.112C76.9933 24.7489 76.4879 24.5674 75.8893 24.5674C75.2907 24.5674 74.7804 24.7489 74.3584 25.112C73.9365 25.4653 73.6715 25.902 73.5635 26.4221ZM80.635 23.1984H82.3278V24.479C82.5731 23.9884 82.9068 23.64 83.3288 23.4339C83.7606 23.218 84.2022 23.1101 84.6536 23.1101C84.8695 23.1101 85.0952 23.1297 85.3307 23.169V24.9795C85.0265 24.8814 84.737 24.8323 84.4622 24.8323C84.0206 24.8323 83.5545 24.9942 83.0638 25.3181C82.5731 25.6419 82.3278 26.216 82.3278 27.0403V31H80.635V23.1984ZM85.7339 24.6704V23.1984H87.2059V21.329L88.8692 20.8432V23.1984H91.2686V24.6704H88.8692V28.4682C88.8692 28.949 89.0066 29.2483 89.2814 29.3661C89.566 29.4838 89.8211 29.5427 90.0468 29.5427C90.4001 29.5427 90.827 29.4642 91.3275 29.3072V30.9411C90.7976 31.0883 90.3118 31.1619 89.8702 31.1619C89.2912 31.1619 88.7024 30.9951 88.1038 30.6614C87.5052 30.318 87.2059 29.5918 87.2059 28.4829V24.6704H85.7339Z" fill="#363636"/>
<defs>
<clipPath id="clip0_2_20">
<rect width="42" height="42" rx="7.41177" fill="white"/>
</clipPath>
</defs>
</svg>
