<svg width="95" height="95" viewBox="0 0 95 95" fill="none" xmlns="http://www.w3.org/2000/svg">
<circle cx="47.3839" cy="47.3839" r="47.3839" fill="white"/>
<g clip-path="url(#clip0_2038_41)">
<path fill-rule="evenodd" clip-rule="evenodd" d="M47.3838 78.9732C64.8301 78.9732 78.9731 64.8303 78.9731 47.384C78.9731 29.9377 64.8301 15.7947 47.3838 15.7947C29.9375 15.7947 15.7946 29.9377 15.7946 47.384C15.7946 64.8303 29.9375 78.9732 47.3838 78.9732ZM57.2386 30.5103C57.7182 28.8065 56.0647 27.7988 54.5546 28.8747L33.4736 43.8928C31.8359 45.0595 32.0935 47.384 33.8606 47.384H39.4118V47.341H50.2308L41.4153 50.4515L37.5291 64.2577C37.0494 65.9616 38.7028 66.9692 40.2131 65.8932L61.294 50.8754C62.9317 49.7086 62.674 47.384 60.907 47.384H52.4888L57.2386 30.5103Z" fill="#155EEF"/>
</g>
<defs>
<clipPath id="clip0_2038_41">
<rect width="63.1785" height="75.8142" fill="white" transform="translate(15.7946 9.47681)"/>
</clipPath>
</defs>
</svg>
