<svg width="310" height="416" viewBox="0 0 310 416" fill="none" xmlns="http://www.w3.org/2000/svg">
<g clip-path="url(#clip0_389_276)">
<path fill-rule="evenodd" clip-rule="evenodd" d="M-43.3758 -15.7608H-162.543L-199.387 97.3901L-102.963 167.311L-6.54021 97.3901L-43.3758 -15.7608ZM-210.389 100.96L-169.349 -25.1051H-36.5776L4.47046 100.96L-102.963 178.876L-210.389 100.96Z" fill="white" fill-opacity="0.05"/>
<path fill-rule="evenodd" clip-rule="evenodd" d="M-36.6105 -26.9881H-170.649L-212.083 100.934L-103.634 179.985L4.81496 100.934L-36.6105 -26.9881ZM-222.628 104.369L-177.169 -35.9841H-30.1008L15.35 104.369L-103.635 191.115L-222.628 104.369Z" fill="white" fill-opacity="0.05"/>
<path fill-rule="evenodd" clip-rule="evenodd" d="M-28.8164 -38.2067H-178.47L-224.708 104.473L-103.639 192.643L17.4289 104.473L-28.8164 -38.2067ZM-234.866 107.774L-184.734 -46.863H-22.5509L27.5892 107.774L-103.638 203.353L-234.866 107.774Z" fill="white" fill-opacity="0.05"/>
<path fill-rule="evenodd" clip-rule="evenodd" d="M-21.0065 -49.4257H-186.271L-237.347 108.005L-103.642 205.301L30.0697 108.005L-21.0065 -49.4257ZM-247.104 111.179L-192.296 -57.7421H-14.9725L39.8286 111.179L-103.642 215.592L-247.104 111.179Z" fill="white" fill-opacity="0.05"/>
<path fill-rule="evenodd" clip-rule="evenodd" d="M-13.1919 -60.651H-194.08L-249.989 111.553L-103.644 217.98L42.7094 111.553L-13.1919 -60.651ZM-259.344 114.586L-199.865 -68.6212H-7.41257L52.0667 114.586L-103.643 227.831L-259.344 114.586Z" fill="white" fill-opacity="0.05"/>
<path fill-rule="evenodd" clip-rule="evenodd" d="M-5.39006 -70.5082H-201.888L-262.631 116.443L-103.643 231.996L55.3523 116.443L-5.39006 -70.5082ZM-271.584 119.358L-207.434 -78.1401H0.147507L64.3049 119.358L-103.643 241.43L-271.584 119.358Z" fill="white" fill-opacity="0.05"/>
<path fill-rule="evenodd" clip-rule="evenodd" d="M2.42653 -81.7409H-209.692L-275.256 119.994L-103.637 244.659L67.9904 119.994L2.42653 -81.7409ZM-283.821 122.775L-214.99 -89.0192H7.71425L76.5453 122.775L-103.638 253.669L-283.821 122.775Z" fill="white" fill-opacity="0.05"/>
<path fill-rule="evenodd" clip-rule="evenodd" d="M10.2306 -92.9498H-217.506L-287.901 123.535L-103.638 257.322L80.6254 123.535L10.2306 -92.9498ZM-296.06 126.183L-222.554 -99.8981H15.2772L88.7834 126.183L-103.639 265.908L-296.06 126.183Z" fill="white" fill-opacity="0.05"/>
<path fill-rule="evenodd" clip-rule="evenodd" d="M18.0384 -104.174H-225.327L-300.548 127.065L-103.64 269.985L93.2673 127.065L18.0384 -104.174ZM-308.3 129.587L-230.116 -110.777H22.8293L101.021 129.587L-103.639 278.146L-308.3 129.587Z" fill="white" fill-opacity="0.05"/>
<path fill-rule="evenodd" clip-rule="evenodd" d="M25.8601 -115.414H-233.124L-313.176 130.605L-103.64 282.655L105.912 130.605L25.8601 -115.414ZM-320.538 133.001L-237.671 -121.656H30.4013L113.261 133.001L-103.639 290.385L-320.538 133.001Z" fill="white" fill-opacity="0.05"/>
<path fill-rule="evenodd" clip-rule="evenodd" d="M33.6608 -126.623H-240.938L-325.813 134.146L-103.643 295.318L118.535 134.146L33.6608 -126.623ZM-332.777 136.401L-245.244 -132.535H37.9669L125.5 136.401L-103.642 302.624L-332.777 136.401Z" fill="white" fill-opacity="0.05"/>
<path fill-rule="evenodd" clip-rule="evenodd" d="M41.4795 -137.846H-248.749L-338.458 137.696L-103.635 307.988L131.189 137.696L41.4795 -137.846ZM-343.376 141.001L-345.015 139.81L-252.804 -143.414H45.5438L137.74 139.81L-103.634 314.863L-343.376 141.001Z" fill="white" fill-opacity="0.05"/>
<path fill-rule="evenodd" clip-rule="evenodd" d="M49.2786 -149.063H-256.563L-351.103 141.221L-103.642 320.642L143.819 141.221L49.2786 -149.063ZM-357.255 143.226L-260.376 -154.293H53.0832L149.978 143.226L-103.643 327.102L-357.255 143.226Z" fill="white" fill-opacity="0.05"/>
<path fill-rule="evenodd" clip-rule="evenodd" d="M57.098 -158.934H-264.376L-363.742 146.132L-103.639 334.664L156.464 146.132L57.098 -158.934ZM-369.494 147.987L-267.939 -163.812H60.6603L162.216 147.987L-103.639 340.701L-369.494 147.987Z" fill="white" fill-opacity="0.05"/>
<path fill-rule="evenodd" clip-rule="evenodd" d="M65.1736 -170.158H-271.093L-375.026 149.669L-102.963 347.326L169.107 149.669L65.1736 -170.158ZM-380.373 151.399L-274.388 -174.691H68.4701L174.455 151.399L-102.963 352.939L-380.373 151.399Z" fill="white" fill-opacity="0.05"/>
<path fill-rule="evenodd" clip-rule="evenodd" d="M72.9863 -181.366H-278.909L-387.677 153.202L-102.961 359.988L181.762 153.202L72.9863 -181.366ZM-391.382 155.707L-392.611 154.807L-281.948 -185.57H76.039L186.694 154.807L-102.962 365.178L-391.382 155.707Z" fill="white" fill-opacity="0.05"/>
<path fill-rule="evenodd" clip-rule="evenodd" d="M80.7928 -192.598H-286.709L-400.299 156.741L-102.958 372.65L194.391 156.741L80.7928 -192.598ZM-404.85 158.213L-289.513 -196.449H83.6047L198.934 158.213L-102.958 377.417L-404.85 158.213Z" fill="white" fill-opacity="0.05"/>
<path fill-rule="evenodd" clip-rule="evenodd" d="M207.035 160.287L88.6104 -203.813H-294.521L-412.953 160.287L-102.959 385.319L207.035 160.287ZM-416.055 162.385L-417.089 161.633L-297.482 -206.115L-297.082 -207.328H91.1646L211.172 161.633L-101.925 388.912L-102.959 389.656L-416.055 162.385Z" fill="white" fill-opacity="0.05"/>
<path fill-rule="evenodd" clip-rule="evenodd" d="M96.4229 -215.037H-302.341L-425.591 163.817L-102.955 397.973L219.673 163.817L96.4229 -215.037ZM-429.329 165.038L-304.645 -218.207H98.7261L223.41 165.038L-102.956 401.895L-429.329 165.038Z" fill="white" fill-opacity="0.05"/>
<path fill-rule="evenodd" clip-rule="evenodd" d="M104.229 -226.26H-310.152L-438.243 167.37L-102.957 410.643L232.32 167.37L104.229 -226.26ZM-440.735 169.053L-441.566 168.458L-312.535 -228.108L-312.213 -229.086H106.298L235.329 167.48L235.65 168.458L-102.958 414.134L-440.735 169.053Z" fill="white" fill-opacity="0.05"/>
<path fill-rule="evenodd" clip-rule="evenodd" d="M112.048 -236.124H-317.967L-450.883 172.26L-102.963 424.657L244.964 172.26L112.048 -236.124ZM-453.077 173.739L-453.806 173.207L-320.059 -237.744L-319.769 -238.605H113.851L247.614 172.346L247.888 173.207L-102.963 427.732L-453.077 173.739Z" fill="white" fill-opacity="0.05"/>
<path fill-rule="evenodd" clip-rule="evenodd" d="M257.588 175.803L119.857 -247.324H-325.766L-463.504 175.803L-102.958 437.318L257.588 175.803ZM-465.402 177.079L-466.045 176.617L-327.57 -248.733L-327.327 -249.484H121.416L259.884 175.874L260.127 176.617L-102.324 439.502L-102.959 439.971L-465.402 177.079Z" fill="white" fill-opacity="0.05"/>
<path fill-rule="evenodd" clip-rule="evenodd" d="M127.67 -258.555H-333.586L-476.158 179.343L-102.962 449.988L270.234 179.343L127.67 -258.555ZM-477.758 180.423L-478.284 180.031L-335.1 -259.729L-334.904 -260.363H128.979L272.17 179.413L272.366 180.031L-102.963 452.21L-477.758 180.423Z" fill="white" fill-opacity="0.05"/>
<path fill-rule="evenodd" clip-rule="evenodd" d="M282.88 182.883L135.482 -269.779H-341.392L-488.797 182.883L-102.959 462.633L282.88 182.883ZM-490.083 183.752L-490.522 183.431L-342.623 -270.741L-342.458 -271.242H136.549L284.441 182.93L284.605 183.431L-102.519 464.128L-102.958 464.449L-490.083 183.752Z" fill="white" fill-opacity="0.05"/>
<path fill-rule="evenodd" clip-rule="evenodd" d="M295.512 187.255L143.29 -281.008H-349.205L-501.435 187.255L-102.966 476.652L295.512 187.255ZM-502.423 187.921L-502.76 187.686L-350.021 -282.121H144.105L296.845 187.686L-102.636 477.805L-102.966 478.048L-502.423 187.921Z" fill="white" fill-opacity="0.05"/>
<path fill-rule="evenodd" clip-rule="evenodd" d="M-357.59 -293L-357.677 -292.726L-515 191.088L-514.765 191.261L-102.959 490.286L-102.731 490.114L309.083 191.088L309.004 190.822L151.681 -293H-357.59ZM-514.083 190.79L-357.01 -292.224H151.1L308.165 190.79L-102.959 489.307L-514.083 190.79Z" fill="white" fill-opacity="0.05"/>
</g>
<defs>
<clipPath id="clip0_389_276">
<rect width="310" height="416" fill="white"/>
</clipPath>
</defs>
</svg>
