<svg width="38" height="40" viewBox="0 0 38 40" fill="none" xmlns="http://www.w3.org/2000/svg">
<path d="M18.4639 0C26.7786 0.106488 34.0495 5.55931 36.7373 13.165C37.4269 15.1824 37.8779 17.49 37.8779 19.749C37.8779 22.0082 37.4914 24.1812 36.8018 26.1826C36.7825 26.2277 36.7823 26.2697 36.7598 26.3115C34.0074 33.8334 26.7365 39.3702 18.4766 39.4766H0V0H18.4639ZM16.4941 9.90039V16.9746L11.4697 11.9502L9.84863 13.5713L14.8125 18.5381H7.43457V20.9834H14.6514L9.55273 26.0859L11.2803 27.8125L16.4941 22.5986V29.624H18.7861V22.5146L23.7939 27.5195L25.415 25.8984L20.5039 20.9834H27.7715V18.5381H20.5547L25.6533 13.4355L23.9258 11.7051L18.7861 16.8457V9.90039H16.4941Z" fill="#262626"/>
</svg>
