<svg width="276" height="85" viewBox="0 0 276 85" fill="none" xmlns="http://www.w3.org/2000/svg">
<path d="M39.1992 0.303223C56.8524 0.529018 72.2886 12.1066 77.9951 28.2544C79.4593 32.5376 80.418 37.4366 80.418 42.2329C80.418 47.0293 79.5961 51.6411 78.1318 55.8901C78.0909 55.9858 78.0908 56.0747 78.043 56.1636C72.1996 72.1335 56.7634 83.889 39.2266 84.1147H0V0.303223H39.1992ZM35.0186 21.3228V36.3413L24.3516 25.6743L20.9102 29.1157L31.4473 39.6597H15.7852V44.853H31.1055L20.2803 55.6851L23.9482 59.3521L35.0186 48.2817V63.1978H39.8838V48.103L50.5166 58.73L53.958 55.2876L43.5303 44.853H58.96V39.6597H43.6406L54.4648 28.8286L50.7969 25.1548L39.8838 36.0679V21.3228H35.0186Z" fill="white"/>
<path d="M230.135 67.2105L241.074 49.2068L230.135 31.2031H241.006L248.683 43.7717L256.36 31.2031H267.23L256.292 49.2068L267.23 67.2105H256.36L248.683 54.6419L241.006 67.2105H230.135Z" fill="white"/>
<path d="M227.426 31.2029V67.2103H217.575V31.2029H227.426ZM218.322 18.3625C219.5 17.2302 220.927 16.6641 222.602 16.6641C224.278 16.6641 225.705 17.2302 226.882 18.3625C228.06 19.4948 228.649 20.8762 228.649 22.5068C228.649 24.1373 228.06 25.4961 226.882 26.5831C225.705 27.7154 224.278 28.2815 222.602 28.2815C220.927 28.2815 219.5 27.738 218.322 26.651C217.145 25.5187 216.556 24.1373 216.556 22.5068C216.556 20.8762 217.145 19.4948 218.322 18.3625Z" fill="white"/>
<path d="M191.689 31.2021H201.54V36.0257C203.714 32.5382 206.998 30.7944 211.391 30.7944C212.388 30.7944 213.43 30.885 214.517 31.0662V41.5967C213.067 41.0531 211.663 40.7814 210.304 40.7814C208.674 40.7814 206.794 41.3475 204.665 42.4798C202.582 43.5669 201.54 45.673 201.54 48.7981V67.2094H191.689V31.2021Z" fill="white"/>
<path d="M157.816 36.0264C161.439 32.403 165.81 30.5913 170.928 30.5913C176.001 30.5913 180.349 32.4256 183.972 36.0943C187.641 39.7177 189.475 44.0658 189.475 49.1385C189.475 54.2565 187.664 58.6499 184.04 62.3186C180.417 65.942 176.046 67.7537 170.928 67.7537C165.855 67.7537 161.485 65.9193 157.816 62.2506C154.193 58.582 152.381 54.2112 152.381 49.1385C152.381 44.0658 154.193 39.6951 157.816 36.0264ZM161.553 49.1385C161.553 51.7655 162.458 54.0301 164.27 55.9324C166.082 57.8346 168.301 58.7858 170.928 58.7858C173.555 58.7858 175.774 57.8346 177.586 55.9324C179.398 54.0301 180.304 51.7655 180.304 49.1385C180.304 46.5116 179.398 44.2696 177.586 42.4126C175.774 40.5103 173.555 39.5592 170.928 39.5592C168.301 39.5592 166.082 40.5103 164.27 42.4126C162.458 44.2696 161.553 46.5116 161.553 49.1385Z" fill="white"/>
<path d="M149.196 31.2029V67.2103H139.345V31.2029H149.196ZM140.092 18.3625C141.27 17.2302 142.696 16.6641 144.372 16.6641C146.048 16.6641 147.475 17.2302 148.652 18.3625C149.83 19.4948 150.419 20.8762 150.419 22.5068C150.419 24.1373 149.83 25.4961 148.652 26.5831C147.475 27.7154 146.048 28.2815 144.372 28.2815C142.696 28.2815 141.27 27.738 140.092 26.651C138.914 25.5187 138.326 24.1373 138.326 22.5068C138.326 20.8762 138.914 19.4948 140.092 18.3625Z" fill="white"/>
<path d="M93.5552 67.2783V19.5854H111.559C118.307 19.5854 124.037 21.8954 128.747 26.5152C133.503 31.135 135.903 36.7739 135.949 43.4318C135.949 43.4771 135.949 43.5451 135.949 43.6357C135.949 50.2483 133.594 55.8419 128.883 60.4165C124.173 64.991 118.398 67.2783 111.559 67.2783H93.5552ZM103.814 57.7669H111.559C115.862 57.7669 119.326 56.4081 121.953 53.6906C124.626 50.973 125.962 47.5535 125.962 43.4318C125.962 39.265 124.626 35.8454 121.953 33.1731C119.281 30.4556 115.816 29.0968 111.559 29.0968H103.814V57.7669Z" fill="white"/>
</svg>
