<svg width="130" height="40" viewBox="0 0 130 40" fill="none" xmlns="http://www.w3.org/2000/svg">
<path d="M18.4639 0.142883C26.7786 0.249371 34.0495 5.70219 36.7373 13.3079C37.4269 15.3253 37.8779 17.6328 37.8779 19.8919C37.8779 22.1511 37.4914 24.3241 36.8018 26.3255C36.7825 26.3705 36.7823 26.4126 36.7598 26.4544C34.0074 33.9763 26.7365 39.513 18.4766 39.6194H0V0.142883H18.4639ZM16.4941 10.0433V17.1175L11.4697 12.0931L9.84863 13.7142L14.8125 18.681H7.43457V21.1263H14.6514L9.55273 26.2288L11.2803 27.9554L16.4941 22.7415V29.7669H18.7861V22.6575L23.7939 27.6624L25.415 26.0413L20.5039 21.1263H27.7715V18.681H20.5547L25.6533 13.5784L23.9258 11.848L18.7861 16.9886V10.0433H16.4941Z" fill="white"/>
<path d="M108.397 31.657L113.549 23.177L108.397 14.697H113.517L117.133 20.617L120.749 14.697H125.869L120.717 23.177L125.869 31.657H120.749L117.133 25.737L113.517 31.657H108.397Z" fill="white"/>
<path d="M107.121 14.697V31.657H102.481V14.697H107.121ZM102.833 8.64903C103.387 8.1157 104.059 7.84903 104.849 7.84903C105.638 7.84903 106.31 8.1157 106.865 8.64903C107.419 9.18236 107.697 9.83303 107.697 10.601C107.697 11.369 107.419 12.009 106.865 12.521C106.31 13.0544 105.638 13.321 104.849 13.321C104.059 13.321 103.387 13.065 102.833 12.553C102.278 12.0197 102.001 11.369 102.001 10.601C102.001 9.83303 102.278 9.18236 102.833 8.64903Z" fill="white"/>
<path d="M90.2882 14.697H94.9282V16.969C95.9522 15.3264 97.4988 14.505 99.5682 14.505C100.037 14.505 100.528 14.5477 101.04 14.633V19.593C100.357 19.337 99.6962 19.209 99.0562 19.209C98.2882 19.209 97.4028 19.4757 96.4002 20.009C95.4188 20.521 94.9282 21.513 94.9282 22.985V31.657H90.2882V14.697Z" fill="white"/>
<path d="M74.3334 16.969C76.0401 15.2624 78.0987 14.409 80.5094 14.409C82.8987 14.409 84.9467 15.273 86.6534 17.001C88.3814 18.7077 89.2454 20.7557 89.2454 23.145C89.2454 25.5557 88.3921 27.625 86.6854 29.353C84.9787 31.0597 82.9201 31.913 80.5094 31.913C78.1201 31.913 76.0614 31.049 74.3334 29.321C72.6267 27.593 71.7734 25.5344 71.7734 23.145C71.7734 20.7557 72.6267 18.697 74.3334 16.969ZM76.0934 23.145C76.0934 24.3824 76.5201 25.449 77.3734 26.345C78.2267 27.241 79.2721 27.689 80.5094 27.689C81.7467 27.689 82.7921 27.241 83.6454 26.345C84.4987 25.449 84.9254 24.3824 84.9254 23.145C84.9254 21.9077 84.4987 20.8517 83.6454 19.977C82.7921 19.081 81.7467 18.633 80.5094 18.633C79.2721 18.633 78.2267 19.081 77.3734 19.977C76.5201 20.8517 76.0934 21.9077 76.0934 23.145Z" fill="white"/>
<path d="M70.2732 14.697V31.657H65.6332V14.697H70.2732ZM65.9852 8.64903C66.5398 8.1157 67.2118 7.84903 68.0012 7.84903C68.7905 7.84903 69.4625 8.1157 70.0172 8.64903C70.5718 9.18236 70.8492 9.83303 70.8492 10.601C70.8492 11.369 70.5718 12.009 70.0172 12.521C69.4625 13.0544 68.7905 13.321 68.0012 13.321C67.2118 13.321 66.5398 13.065 65.9852 12.553C65.4305 12.0197 65.1532 11.369 65.1532 10.601C65.1532 9.83303 65.4305 9.18236 65.9852 8.64903Z" fill="white"/>
<path d="M44.0657 31.689V9.22504H52.5457C55.7243 9.22504 58.423 10.313 60.6417 12.489C62.8817 14.665 64.0123 17.321 64.0337 20.457C64.0337 20.4784 64.0337 20.5104 64.0337 20.553C64.0337 23.6677 62.9243 26.3024 60.7057 28.457C58.487 30.6117 55.767 31.689 52.5457 31.689H44.0657ZM48.8977 27.209H52.5457C54.5723 27.209 56.2043 26.569 57.4417 25.289C58.7003 24.009 59.3297 22.3984 59.3297 20.457C59.3297 18.4944 58.7003 16.8837 57.4417 15.625C56.183 14.345 54.551 13.705 52.5457 13.705H48.8977V27.209Z" fill="white"/>
</svg>
