<svg width="45" height="45" viewBox="0 0 45 45" fill="none" xmlns="http://www.w3.org/2000/svg">
<g clip-path="url(#clip0_2028_223)">
<rect width="45" height="45" rx="11.25" fill="#155EEF"/>
<rect width="48" height="48" fill="url(#paint0_linear_2028_223)"/>
<g filter="url(#filter0_d_2028_223)">
<path fill-rule="evenodd" clip-rule="evenodd" d="M22.5 36.5625C30.2665 36.5625 36.5625 30.2665 36.5625 22.5C36.5625 14.7335 30.2665 8.4375 22.5 8.4375C14.7335 8.4375 8.4375 14.7335 8.4375 22.5C8.4375 30.2665 14.7335 36.5625 22.5 36.5625ZM26.887 14.9884C27.1005 14.2299 26.3644 13.7813 25.6922 14.2603L16.3077 20.9458C15.5786 21.4652 15.6933 22.5 16.4799 22.5H18.9511V22.4809H23.7674L19.843 23.8655L18.113 30.0116C17.8995 30.7702 18.6355 31.2187 19.3078 30.7397L28.6924 24.0542C29.4214 23.5348 29.3067 22.5 28.5201 22.5H24.7726L26.887 14.9884Z" fill="url(#paint1_linear_2028_223)"/>
</g>
</g>
<rect x="0.9375" y="0.9375" width="43.125" height="43.125" rx="10.3125" stroke="url(#paint2_linear_2028_223)" stroke-width="1.875"/>
<defs>
<filter id="filter0_d_2028_223" x="5.625" y="4.92188" width="33.75" height="39.375" filterUnits="userSpaceOnUse" color-interpolation-filters="sRGB">
<feFlood flood-opacity="0" result="BackgroundImageFix"/>
<feColorMatrix in="SourceAlpha" type="matrix" values="0 0 0 0 0 0 0 0 0 0 0 0 0 0 0 0 0 0 127 0" result="hardAlpha"/>
<feMorphology radius="1.40625" operator="erode" in="SourceAlpha" result="effect1_dropShadow_2028_223"/>
<feOffset dy="2.10938"/>
<feGaussianBlur stdDeviation="2.10938"/>
<feComposite in2="hardAlpha" operator="out"/>
<feColorMatrix type="matrix" values="0 0 0 0 0.141176 0 0 0 0 0.141176 0 0 0 0 0.141176 0 0 0 0.1 0"/>
<feBlend mode="normal" in2="BackgroundImageFix" result="effect1_dropShadow_2028_223"/>
<feBlend mode="normal" in="SourceGraphic" in2="effect1_dropShadow_2028_223" result="shape"/>
</filter>
<linearGradient id="paint0_linear_2028_223" x1="24" y1="5.96047e-07" x2="26" y2="48" gradientUnits="userSpaceOnUse">
<stop stop-color="white" stop-opacity="0"/>
<stop offset="1" stop-color="white" stop-opacity="0.12"/>
</linearGradient>
<linearGradient id="paint1_linear_2028_223" x1="22.5" y1="8.4375" x2="22.5" y2="36.5625" gradientUnits="userSpaceOnUse">
<stop stop-color="white" stop-opacity="0.8"/>
<stop offset="1" stop-color="white" stop-opacity="0.5"/>
</linearGradient>
<linearGradient id="paint2_linear_2028_223" x1="22.5" y1="0" x2="22.5" y2="45" gradientUnits="userSpaceOnUse">
<stop stop-color="white" stop-opacity="0.12"/>
<stop offset="1" stop-color="white" stop-opacity="0"/>
</linearGradient>
<clipPath id="clip0_2028_223">
<rect width="45" height="45" rx="11.25" fill="white"/>
</clipPath>
</defs>
</svg>
