<svg width="45" height="45" viewBox="0 0 45 45" fill="none" xmlns="http://www.w3.org/2000/svg">
<g clip-path="url(#clip0_2028_214)">
<rect width="45" height="45" rx="12" fill="#262626"/>
<rect width="45" height="45" fill="url(#paint0_linear_2028_214)"/>
<g filter="url(#filter0_d_2028_214)">
<path fill-rule="evenodd" clip-rule="evenodd" d="M14 8C10.6863 8 8 10.6863 8 14V32C8 35.3137 10.6863 38 14 38H32C35.3137 38 38 35.3137 38 32V14C38 10.6863 35.3137 8 32 8H14ZM16.25 19.625H23.7233L14.9242 28.4242L17.5758 31.0758L26.375 22.2767V29.75H30.125V17.75C30.125 16.7145 29.2855 15.875 28.25 15.875H16.25V19.625Z" fill="url(#paint1_linear_2028_214)"/>
</g>
</g>
<rect x="1" y="1" width="43" height="43" rx="11" stroke="url(#paint2_linear_2028_214)" stroke-width="2"/>
<defs>
<filter id="filter0_d_2028_214" x="5" y="4.25" width="36" height="42" filterUnits="userSpaceOnUse" color-interpolation-filters="sRGB">
<feFlood flood-opacity="0" result="BackgroundImageFix"/>
<feColorMatrix in="SourceAlpha" type="matrix" values="0 0 0 0 0 0 0 0 0 0 0 0 0 0 0 0 0 0 127 0" result="hardAlpha"/>
<feMorphology radius="1.5" operator="erode" in="SourceAlpha" result="effect1_dropShadow_2028_214"/>
<feOffset dy="2.25"/>
<feGaussianBlur stdDeviation="2.25"/>
<feComposite in2="hardAlpha" operator="out"/>
<feColorMatrix type="matrix" values="0 0 0 0 0.141176 0 0 0 0 0.141176 0 0 0 0 0.141176 0 0 0 0.1 0"/>
<feBlend mode="normal" in2="BackgroundImageFix" result="effect1_dropShadow_2028_214"/>
<feBlend mode="normal" in="SourceGraphic" in2="effect1_dropShadow_2028_214" result="shape"/>
</filter>
<linearGradient id="paint0_linear_2028_214" x1="22.5" y1="5.58794e-07" x2="24.375" y2="45" gradientUnits="userSpaceOnUse">
<stop stop-color="white" stop-opacity="0"/>
<stop offset="1" stop-color="white" stop-opacity="0.12"/>
</linearGradient>
<linearGradient id="paint1_linear_2028_214" x1="23" y1="8" x2="23" y2="38" gradientUnits="userSpaceOnUse">
<stop stop-color="white" stop-opacity="0.8"/>
<stop offset="1" stop-color="white" stop-opacity="0.5"/>
</linearGradient>
<linearGradient id="paint2_linear_2028_214" x1="22.5" y1="0" x2="22.5" y2="45" gradientUnits="userSpaceOnUse">
<stop stop-color="white" stop-opacity="0.12"/>
<stop offset="1" stop-color="white" stop-opacity="0"/>
</linearGradient>
<clipPath id="clip0_2028_214">
<rect width="45" height="45" rx="12" fill="white"/>
</clipPath>
</defs>
</svg>
