<svg width="86" height="17" viewBox="0 0 86 17" fill="none" xmlns="http://www.w3.org/2000/svg">
<g clip-path="url(#clip0_492_2041)">
<path d="M15.1621 6.1548L10.3637 5.45928L8.21684 1.12344C8.09119 0.870719 7.67309 0.870719 7.54961 1.12344L5.40206 5.45928L0.604372 6.1548C0.464283 6.17568 0.346579 6.2736 0.303975 6.40824C0.259926 6.54288 0.295309 6.68976 0.398571 6.78768L3.86975 10.1623L3.05088 14.9287C3.0256 15.0684 3.08337 15.2088 3.19819 15.2909C3.313 15.3744 3.46537 15.3852 3.59101 15.3197L7.8825 13.0697L12.1747 15.3197C12.2282 15.3485 12.2874 15.3622 12.348 15.3622C12.4246 15.3622 12.5011 15.3384 12.5668 15.2909C12.6802 15.2088 12.7372 15.0684 12.7127 14.9287L11.8938 10.1623L15.3664 6.78768C15.4697 6.68976 15.5044 6.54216 15.4625 6.40824C15.4184 6.2736 15.3029 6.17568 15.1621 6.1548Z" fill="#FDA712"/>
<path d="M32.7621 6.1548L27.9652 5.45928L25.8176 1.12344C25.6934 0.870719 25.2746 0.870719 25.1511 1.12344L23.0021 5.45928L18.2051 6.1548C18.0658 6.17568 17.9488 6.2736 17.9047 6.40824C17.86 6.54288 17.8968 6.68976 18.0001 6.78768L21.472 10.1623L20.6509 14.9287C20.6293 15.0684 20.6849 15.2088 20.7975 15.2909C20.9145 15.3744 21.0668 15.3852 21.1903 15.3197L25.484 13.0697L29.7748 15.3197C29.8282 15.3485 29.8881 15.3622 29.9481 15.3622C30.0261 15.3622 30.1026 15.3384 30.169 15.2909C30.281 15.2088 30.3394 15.0684 30.3142 14.9287L29.4946 10.1623L32.9686 6.78768C33.069 6.68976 33.1051 6.54216 33.0632 6.40824C33.0199 6.2736 32.9037 6.17568 32.7621 6.1548Z" fill="#FDA712"/>
<path d="M50.5447 6.1548L45.7478 5.45928L43.601 1.12344C43.476 0.870719 43.0572 0.870719 42.9337 1.12344L40.7862 5.45928L35.9885 6.1548C35.8484 6.17568 35.7307 6.2736 35.6881 6.40824C35.6433 6.54288 35.678 6.68976 35.7827 6.78768L39.2546 10.1623L38.4335 14.9287C38.4097 15.0684 38.4675 15.2088 38.5823 15.2909C38.6957 15.3744 38.8495 15.3852 38.9744 15.3197L43.2666 13.0697L47.5588 15.3197C47.6115 15.3485 47.6715 15.3622 47.7307 15.3622C47.808 15.3622 47.8852 15.3384 47.9495 15.2909C48.0629 15.2088 48.1221 15.0684 48.0968 14.9287L47.2779 10.1623L50.7506 6.78768C50.8524 6.68976 50.8885 6.54216 50.8451 6.40824C50.8025 6.2736 50.6856 6.17568 50.5447 6.1548Z" fill="#FDA712"/>
<path d="M67.7937 6.1548L62.9953 5.45928L60.8477 1.12344C60.7213 0.870719 60.304 0.870719 60.1812 1.12344L58.0336 5.45928L53.2352 6.1548C53.0937 6.17568 52.9796 6.2736 52.9341 6.40824C52.8901 6.54288 52.9255 6.68976 53.028 6.78768L56.5013 10.1623L55.681 14.9287C55.6565 15.0684 55.7135 15.2088 55.8283 15.2909C55.9431 15.3744 56.0955 15.3852 56.2212 15.3197L60.5134 13.0697L64.8041 15.3197C64.859 15.3485 64.9182 15.3622 64.9789 15.3622C65.0547 15.3622 65.1313 15.3384 65.197 15.2909C65.3096 15.2088 65.3674 15.0684 65.3436 14.9287L64.5254 10.1623L67.9973 6.78768C68.0977 6.68976 68.1338 6.54216 68.0912 6.40824C68.0486 6.2736 67.9316 6.17568 67.7937 6.1548Z" fill="#FDA712"/>
<path d="M85.6947 6.40824C85.6507 6.2736 85.5322 6.17568 85.3936 6.1548L80.5952 5.45928L78.4476 1.12344C78.3234 0.870719 77.9061 0.870719 77.7804 1.12344L75.635 5.45928L70.8359 6.1548C70.6958 6.17568 70.5795 6.2736 70.5355 6.40824C70.4907 6.54288 70.5268 6.68976 70.6301 6.78768L74.102 10.1623L73.2831 14.9287C73.2593 15.0684 73.3149 15.2088 73.4311 15.2909C73.5452 15.3744 73.6976 15.3852 73.8225 15.3197L78.114 13.0697L82.407 15.3197C82.4604 15.3485 82.5189 15.3622 82.5795 15.3622C82.6568 15.3622 82.7333 15.3384 82.7998 15.2909C82.9117 15.2088 82.9695 15.0684 82.9449 14.9287L82.1268 10.1623L85.5987 6.78768C85.7019 6.68976 85.7373 6.54288 85.6947 6.40824Z" fill="#FDA712"/>
</g>
<defs>
<clipPath id="clip0_492_2041">
<rect width="86" height="16" fill="white" transform="translate(0 0.262085)"/>
</clipPath>
</defs>
</svg>
