<svg width="55" height="55" viewBox="0 0 55 55" fill="none" xmlns="http://www.w3.org/2000/svg">
<path d="M46.64 6.78069V45.6343C46.64 48.015 44.715 49.94 42.3421 49.94H10.0729C7.7 49.94 5.775 48.015 5.775 45.6343V6.78069C5.775 4.39998 7.7 2.47498 10.0729 2.47498H42.3421C44.715 2.47498 46.64 4.39998 46.64 6.78069Z" fill="#1C26E6"/>
<path d="M49.225 9.36565V48.2192C49.225 50.5999 47.3 52.5249 44.9271 52.5249H12.6579C10.285 52.5249 8.36 50.5999 8.36 48.2192V9.36565C8.36 6.98494 10.285 5.05994 12.6579 5.05994H44.9271C47.3 5.05994 49.225 6.98494 49.225 9.36565Z" fill="#94B6FF"/>
<path d="M16.8064 11.2749C16.8064 12.7442 15.6121 13.9385 14.135 13.9385C12.6657 13.9385 11.4714 12.7442 11.4714 11.2749C11.4714 9.7978 12.6657 8.60352 14.135 8.60352C15.6121 8.60352 16.8064 9.7978 16.8064 11.2749Z" fill="#6A8CFF"/>
<path d="M40.0793 10.5836H20.0593C19.8393 10.5836 19.6664 10.4107 19.6664 10.1907C19.6664 9.97071 19.8393 9.79785 20.0593 9.79785H40.0871C40.3071 9.79785 40.48 9.97071 40.48 10.1907C40.48 10.4107 40.2993 10.5836 40.0793 10.5836Z" fill="white"/>
<path d="M32.7486 13.7106H20.0593C19.8393 13.7106 19.6664 13.5378 19.6664 13.3178C19.6664 13.0978 19.8393 12.9249 20.0593 12.9249H32.7486C32.9686 12.9249 33.1414 13.0978 33.1414 13.3178C33.1414 13.5378 32.9607 13.7106 32.7486 13.7106Z" fill="white"/>
<path d="M45.6186 19.5957V41.4071C45.6186 42.4128 44.8014 43.23 43.7957 43.23H13.8679C12.8621 43.23 12.045 42.4128 12.045 41.4071V19.5957C12.045 18.59 12.8621 17.7728 13.8679 17.7728H43.7957C44.8014 17.7728 45.6186 18.59 45.6186 19.5957Z" fill="white"/>
<path d="M32.4421 46.7579H12.4143C12.1943 46.7579 12.0214 46.585 12.0214 46.365C12.0214 46.145 12.1943 45.9722 12.4143 45.9722H32.4343C32.6543 45.9722 32.8271 46.145 32.8271 46.365C32.8271 46.585 32.6543 46.7579 32.4421 46.7579Z" fill="white"/>
<path d="M25.1036 49.8929H12.4143C12.1943 49.8929 12.0214 49.72 12.0214 49.5C12.0214 49.28 12.1943 49.1072 12.4143 49.1072H25.1036C25.3236 49.1072 25.4964 49.28 25.4964 49.5C25.4964 49.72 25.3236 49.8929 25.1036 49.8929Z" fill="white"/>
<path d="M25.4964 33.3535L27.5629 38.2406C27.8693 38.9714 27.5314 39.8121 26.8007 40.1185C26.07 40.4249 25.2293 40.0871 24.9229 39.3564L22.8564 34.4692C22.55 33.7385 22.8879 32.8978 23.6186 32.5914C23.9879 32.4342 24.3807 32.4499 24.7186 32.5835C25.0564 32.7171 25.3471 32.9921 25.4964 33.3535Z" fill="#495E66"/>
<path d="M36.353 29.7766C37.4241 29.323 37.7916 27.7728 37.1739 26.314C36.5562 24.8553 35.1871 24.0404 34.1161 24.494C33.045 24.9475 32.6774 26.4977 33.2952 27.9565C33.9129 29.4152 35.2819 30.2301 36.353 29.7766Z" fill="#FBE063"/>
<path d="M35.8364 34.8856L27.2014 34.2964L24.5064 27.9321L30.0929 21.3242C30.9336 20.4128 32.4421 20.6721 32.9214 21.8192L37.4471 32.5128C37.9343 33.6521 37.0779 34.9171 35.8364 34.8856Z" fill="#54E28E"/>
<path d="M24.5143 27.932L27.2093 34.2963L24.8836 35.2784C23.1236 36.0249 21.0964 35.1999 20.3579 33.4399C19.6114 31.6799 20.4364 29.6527 22.1964 28.9141L24.5143 27.932Z" fill="#FBE063"/>
</svg>
