<svg width="55" height="55" viewBox="0 0 55 55" fill="none" xmlns="http://www.w3.org/2000/svg">
<path d="M50.105 6.33291V46.2708C50.105 48.3686 48.4 50.0736 46.3021 50.0736H6.29356C4.19571 50.0736 2.49071 48.3686 2.49071 46.2708V6.33291C2.49071 4.23506 4.19571 2.53006 6.29356 2.53006H46.3021C48.4 2.5222 50.105 4.2272 50.105 6.33291Z" fill="#1C26E6"/>
<path d="M52.5093 8.73721V48.6751C52.5093 50.7729 50.8043 52.4779 48.7064 52.4779H8.69785C6.59999 52.4779 4.89499 50.7729 4.89499 48.6751V8.73721C4.89499 6.63935 6.59999 4.93435 8.69785 4.93435H48.7064C50.8043 4.9265 52.5093 6.6315 52.5093 8.73721Z" fill="white"/>
<path d="M52.5093 14.41V8.73718C52.5093 6.63933 50.8043 4.93433 48.7064 4.93433H8.69785C6.59999 4.93433 4.89499 6.63933 4.89499 8.73718V14.41H52.5093Z" fill="#94B6FF"/>
<path d="M9.23214 10.8036C9.85701 10.8036 10.3636 10.2971 10.3636 9.6722C10.3636 9.04733 9.85701 8.54077 9.23214 8.54077C8.60727 8.54077 8.10071 9.04733 8.10071 9.6722C8.10071 10.2971 8.60727 10.8036 9.23214 10.8036Z" fill="white"/>
<path d="M13.3571 10.8036C13.982 10.8036 14.4886 10.2971 14.4886 9.6722C14.4886 9.04733 13.982 8.54077 13.3571 8.54077C12.7323 8.54077 12.2257 9.04733 12.2257 9.6722C12.2257 10.2971 12.7323 10.8036 13.3571 10.8036Z" fill="white"/>
<path d="M17.4821 10.8036C18.107 10.8036 18.6136 10.2971 18.6136 9.6722C18.6136 9.04733 18.107 8.54077 17.4821 8.54077C16.8573 8.54077 16.3507 9.04733 16.3507 9.6722C16.3507 10.2971 16.8573 10.8036 17.4821 10.8036Z" fill="white"/>
<path d="M49.3036 10.065H31.4757C31.2557 10.065 31.0828 9.89215 31.0828 9.67215C31.0828 9.45215 31.2557 9.2793 31.4757 9.2793H49.3036C49.5236 9.2793 49.6964 9.45215 49.6964 9.67215C49.6964 9.89215 49.5236 10.065 49.3036 10.065Z" fill="#1C26E6"/>
<path d="M21.2693 18.5271L43.615 40.8729C43.9843 41.2421 43.9921 41.8314 43.6228 42.2007L37.455 48.3686C37.0857 48.7379 36.4964 48.7379 36.1271 48.3607L13.7814 26.015C13.4121 25.6457 13.4121 25.0564 13.7814 24.6871L19.9493 18.5193C20.3186 18.15 20.9078 18.1579 21.2693 18.5271Z" fill="#FBE063"/>
<path d="M15.2552 27.498L16.7831 25.9702L17.3387 26.5258L15.8108 28.0536L15.2552 27.498Z" fill="#F9A41A"/>
<path d="M17.2628 29.5027L18.2573 28.5082L18.8129 29.0638L17.8184 30.0583L17.2628 29.5027Z" fill="#F9A41A"/>
<path d="M19.6651 31.905L21.193 30.3772L21.7486 30.9328L20.2207 32.4606L19.6651 31.905Z" fill="#F9A41A"/>
<path d="M22.0711 34.3104L23.0656 33.3159L23.6212 33.8715L22.6267 34.866L22.0711 34.3104Z" fill="#F9A41A"/>
<path d="M24.7579 36.9915L26.2821 35.4672Z" fill="white"/>
<path d="M26.8787 39.1174L27.8732 38.1229L28.4288 38.6785L27.4343 39.673L26.8787 39.1174Z" fill="#F9A41A"/>
<path d="M29.2818 41.5199L30.8096 39.992L31.3652 40.5476L29.8374 42.0755L29.2818 41.5199Z" fill="#F9A41A"/>
<path d="M31.687 43.9244L32.6815 42.9299L33.2371 43.4855L32.2426 44.48L31.687 43.9244Z" fill="#F9A41A"/>
<path d="M34.0838 46.3324L35.6116 44.8045L36.1672 45.3601L34.6393 46.888L34.0838 46.3324Z" fill="#F9A41A"/>
<path d="M20.6093 23.6265C21.2689 23.6265 21.8036 23.0918 21.8036 22.4322C21.8036 21.7726 21.2689 21.2379 20.6093 21.2379C19.9497 21.2379 19.415 21.7726 19.415 22.4322C19.415 23.0918 19.9497 23.6265 20.6093 23.6265Z" fill="white"/>
<path d="M40.3071 29.3307L23.1786 46.4593C23.1786 46.4593 23.1786 46.4593 23.1707 46.4515L15.6828 38.9636L32.8114 21.835C33.6286 21.0179 34.9564 21.0179 35.7736 21.835L40.3071 26.3686C41.1243 27.1857 41.1243 28.5136 40.3071 29.3307Z" fill="#54E28E"/>
<path d="M28.2875 26.3602L29.9095 24.7382L37.3977 32.2263L35.7756 33.8484L28.2875 26.3602Z" fill="white"/>
<path d="M37.4078 32.23L40.3071 29.3307C41.1243 28.5136 41.1243 27.1857 40.3071 26.3686L35.7736 21.835C34.9564 21.0179 33.6286 21.0179 32.8114 21.835L29.9121 24.7343L37.4078 32.23Z" fill="#495E66"/>
<path d="M23.1786 46.4593L14.3628 47.7872L15.6907 38.9636L23.1786 46.4593Z" fill="#FFC6CD"/>
<path d="M14.8107 44.7778L14.3628 47.7871L17.3643 47.3314L14.8107 44.7778Z" fill="#495E66"/>
<path d="M19.1508 42.4332L31.7551 29.8289L32.3106 30.3844L19.7063 42.9887L19.1508 42.4332Z" fill="white"/>
</svg>
