<svg width="55" height="55" viewBox="0 0 55 55" fill="none" xmlns="http://www.w3.org/2000/svg">
<path d="M44.3143 12.4144V36.7322C44.3143 39.4037 42.1536 41.5644 39.49 41.5644H28.8829V43.5758C28.8829 45.5637 30.4936 47.1822 32.4893 47.1822C33.2357 47.1822 33.9507 47.6537 34.1471 48.3844C34.3043 48.9737 34.1079 49.5551 33.7229 49.9401C33.4321 50.2308 33.0236 50.4194 32.5757 50.4194H13.9857C13.1293 50.4194 12.3436 49.7908 12.2807 48.9344C12.2414 48.4315 12.4221 47.9758 12.7443 47.6615C13.0429 47.3629 13.4436 47.1822 13.8914 47.1822H14.0879C16.0757 47.1822 17.6943 45.5715 17.6943 43.5758V41.5644H6.985C4.31357 41.5644 2.16071 39.4037 2.16071 36.7322V12.4144C2.16071 9.74295 4.31357 7.59009 6.985 7.59009H39.49C42.1536 7.59009 44.3143 9.74295 44.3143 12.4144Z" fill="#1C26E6"/>
<path d="M46.4593 14.5593V38.8772C46.4593 41.5407 44.2986 43.7093 41.6271 43.7093H9.13C6.46643 43.7093 4.30571 41.5486 4.30571 38.8772V14.5593C4.30571 11.8879 6.45857 9.72717 9.13 9.72717H41.635C44.2986 9.72717 46.4593 11.8879 46.4593 14.5593Z" fill="white"/>
<path d="M4.30571 37.4866V38.8694C4.30571 41.533 6.45857 43.7016 9.13 43.7016H41.635C44.2986 43.7016 46.4671 41.5409 46.4671 38.8694V37.4866H4.30571Z" fill="#94B6FF"/>
<path d="M36.2843 50.5215C36.4414 51.1187 36.245 51.6923 35.86 52.0773C35.5693 52.368 35.1607 52.5565 34.7129 52.5565H16.1229C15.2664 52.5565 14.4807 51.928 14.41 51.0715C14.3707 50.5687 14.5593 50.113 14.8814 49.7987C15.1721 49.508 15.5807 49.3194 16.0286 49.3194H16.225C18.2129 49.3194 19.8236 47.7087 19.8236 45.7208V43.7015H31.02V45.7208C31.02 47.7087 32.6307 49.3194 34.6186 49.3194C35.3807 49.3194 36.0957 49.7908 36.2843 50.5215Z" fill="#94B6FF"/>
<path d="M19.8314 43.7015H31.0279V44.5815H19.8314V43.7015Z" fill="#6A8CFF"/>
<path d="M30.5564 40.9908H20.2086C19.9886 40.9908 19.8157 40.8179 19.8157 40.5979C19.8157 40.3779 19.9886 40.2051 20.2086 40.2051H30.5564C30.7764 40.2051 30.9493 40.3779 30.9493 40.5979C30.9493 40.8179 30.7764 40.9908 30.5564 40.9908Z" fill="#6A8CFF"/>
<path d="M13.8364 26.9186V31.1144C13.8364 31.9629 13.145 32.6386 12.3121 32.6386H9.97857C9.13 32.6386 8.45428 31.9551 8.45428 31.1144V26.9186C8.45428 26.0779 9.13786 25.4022 9.97857 25.4022H12.3121C13.145 25.4022 13.8364 26.0858 13.8364 26.9186Z" fill="#495E66"/>
<path d="M32.9136 23.4772V31.1222C32.9136 31.9708 32.23 32.6465 31.3971 32.6465H29.0557C28.215 32.6465 27.5314 31.9629 27.5314 31.1222V23.4772C27.5314 22.6365 28.2229 21.9529 29.0557 21.9529H31.3971C32.2379 21.9451 32.9136 22.6365 32.9136 23.4772Z" fill="#FBE063"/>
<path d="M42.46 16.9794V31.1144C42.46 31.9629 41.7764 32.6386 40.9436 32.6386H38.6021C37.7614 32.6386 37.0857 31.9551 37.0857 31.1144V16.9794C37.0857 16.1308 37.7614 15.4551 38.6021 15.4551H40.9436C41.7764 15.4551 42.46 16.1386 42.46 16.9794Z" fill="#54E28E"/>
<path d="M23.375 19.6744V31.1144C23.375 31.963 22.6993 32.6387 21.8507 32.6387H19.5171C18.6764 32.6387 17.9929 31.9551 17.9929 31.1144V19.6744C17.9929 18.8337 18.6843 18.158 19.5171 18.158H21.8507C22.6993 18.158 23.375 18.8415 23.375 19.6744Z" fill="#54E28E"/>
<path d="M16.445 14.1193H8.44643C8.22643 14.1193 8.05357 13.9465 8.05357 13.7265C8.05357 13.5065 8.22643 13.3336 8.44643 13.3336H16.445C16.665 13.3336 16.8379 13.5065 16.8379 13.7265C16.8379 13.9465 16.6571 14.1193 16.445 14.1193Z" fill="#E2E2E0"/>
<path d="M13.3414 17.6473H8.44643C8.22643 17.6473 8.05357 17.4744 8.05357 17.2544C8.05357 17.0344 8.22643 16.8616 8.44643 16.8616H13.3414C13.5614 16.8616 13.7343 17.0344 13.7343 17.2544C13.7343 17.4744 13.5614 17.6473 13.3414 17.6473Z" fill="#E2E2E0"/>
<path d="M34.4771 18.2443H35.0821C35.3571 18.2443 35.6164 18.3857 35.7657 18.6215L35.8993 18.8336H39.5686L39.7021 18.6215C39.8514 18.3857 40.1107 18.2443 40.3857 18.2443H47.3707C49.1857 18.2443 50.655 16.775 50.655 14.96V5.72789C50.655 3.91289 49.1857 2.4436 47.3707 2.4436H34.485C32.6621 2.4436 31.1929 3.91289 31.1929 5.73575V14.96C31.1929 16.775 32.6621 18.2443 34.4771 18.2443Z" fill="#1C26E6"/>
<path d="M52.8393 7.92007V17.1444C52.8393 18.9594 51.37 20.4286 49.555 20.4286H42.57C42.295 20.4286 42.0357 20.5701 41.8864 20.8058L40.5979 22.8644C40.2836 23.3672 39.5529 23.3672 39.2307 22.8644L37.95 20.8058C37.8007 20.5701 37.5414 20.4286 37.2664 20.4286H36.6614C34.8464 20.4286 33.3771 18.9594 33.3771 17.1444V7.92007C33.3771 6.09722 34.8464 4.62793 36.6693 4.62793H49.555C51.3621 4.63579 52.8393 6.10507 52.8393 7.92007Z" fill="#94B6FF"/>
<path d="M39.4586 12.76C39.2857 12.6343 39.0579 12.54 38.7514 12.4693L38.1621 12.3357C37.6907 12.2257 37.51 12.155 37.4393 12.1236C37.3136 12.0529 37.2586 11.9507 37.2586 11.8015C37.2586 11.6522 37.3136 11.5265 37.4314 11.4165C37.5493 11.3065 37.7536 11.2436 38.0521 11.2436C38.4214 11.2436 38.6729 11.3379 38.8143 11.5186C38.8929 11.6207 38.94 11.77 38.9636 11.9665L38.9793 12.0922H39.7886V11.9429C39.7886 11.4322 39.6157 11.0472 39.2621 10.8036C38.9321 10.5757 38.5314 10.4579 38.06 10.4579C37.5493 10.4579 37.1407 10.5915 36.8579 10.8586C36.5671 11.1257 36.4179 11.4715 36.4179 11.8879C36.4179 12.2886 36.575 12.5872 36.8814 12.7915C37.0543 12.9015 37.3214 13.0036 37.7143 13.09L38.28 13.2157C38.5707 13.2786 38.7829 13.3572 38.9086 13.4436C39.0107 13.5143 39.0579 13.6322 39.0579 13.8129C39.0579 13.9622 39.0186 14.1822 38.6493 14.3079C38.4921 14.3629 38.3114 14.3943 38.115 14.3943C37.6907 14.3943 37.4 14.2765 37.2429 14.0407C37.1564 13.915 37.1093 13.7422 37.1014 13.5379L37.0936 13.3965H36.2764V13.5379C36.2686 14.0329 36.4336 14.4336 36.7557 14.7243C37.0779 15.015 37.5179 15.1643 38.0757 15.1643C38.5471 15.1643 38.9636 15.0543 39.325 14.8422C39.71 14.6143 39.8986 14.2372 39.8986 13.7186C39.9143 13.31 39.7571 12.9879 39.4586 12.76Z" fill="#6A8CFF"/>
<path d="M42.0121 13.1293H44.3221V12.3514H42.0121V11.3772H44.5107V10.5679H41.1636V15.0464H44.55V14.2529H42.0121V13.1293Z" fill="#6A8CFF"/>
<path d="M49.4843 11.2279C49.0993 10.7172 48.51 10.4579 47.7243 10.4579C46.97 10.4579 46.3886 10.7407 46.0036 11.2986C45.705 11.7229 45.5557 12.2415 45.5557 12.8386C45.5557 13.4986 45.7286 14.0486 46.0821 14.4886C46.475 14.9443 47.025 15.18 47.7086 15.18C48.4393 15.18 49.0207 14.9129 49.4136 14.3943C49.7514 13.9543 49.9164 13.4043 49.9164 12.7443C49.9243 12.1315 49.775 11.6207 49.4843 11.2279ZM49.0521 12.7443C49.0521 13.1765 48.95 13.5693 48.7379 13.8993C48.5414 14.2136 48.2271 14.3707 47.7793 14.3707C47.3 14.3707 46.9621 14.2372 46.7579 13.9543C46.5457 13.6636 46.4357 13.2943 46.4357 12.87C46.4357 12.3279 46.5614 11.9193 46.805 11.6522C47.0486 11.385 47.3629 11.2515 47.7557 11.2515C48.1643 11.2515 48.4707 11.385 48.6986 11.6522C48.9343 11.9193 49.0521 12.2886 49.0521 12.7443Z" fill="#6A8CFF"/>
</svg>
