<svg width="55" height="55" viewBox="0 0 55 55" fill="none" xmlns="http://www.w3.org/2000/svg">
<path d="M45.9486 10.3479V35.4908C45.9486 38.2486 43.7093 40.48 40.9593 40.48H7.33858C4.58072 40.4879 2.35715 38.2565 2.35715 35.4986V10.3558C2.35715 7.59005 4.58858 5.36648 7.34643 5.36648H40.9593C43.7093 5.35862 45.9486 7.59005 45.9486 10.3479Z" fill="white"/>
<path d="M2.35715 34.0686V35.4986C2.35715 38.2565 4.58858 40.4879 7.34643 40.4879H40.9593C43.7171 40.4879 45.9486 38.2486 45.9486 35.4986V34.0686H2.35715Z" fill="#94B6FF"/>
<path d="M35.4279 47.5357C35.5929 48.1486 35.3886 48.7457 34.9957 49.1464C34.6893 49.4529 34.2729 49.6414 33.8093 49.6414H14.5829C13.695 49.6414 12.8857 48.9893 12.815 48.1093C12.7757 47.5907 12.9643 47.1193 13.3022 46.7972C13.6086 46.4907 14.025 46.3022 14.4886 46.3022H14.6929C16.7514 46.3022 18.4172 44.6364 18.4172 42.5779V40.4957H29.9986V42.5779C29.9986 44.6364 31.6643 46.3022 33.7229 46.3022C34.4929 46.3022 35.2314 46.7893 35.4279 47.5357Z" fill="#2837FF"/>
<path d="M29.5036 37.6672H18.8021C18.5821 37.6672 18.4093 37.4943 18.4093 37.2743C18.4093 37.0543 18.5821 36.8815 18.8021 36.8815H29.5036C29.7236 36.8815 29.8964 37.0543 29.8964 37.2743C29.8964 37.4943 29.7157 37.6672 29.5036 37.6672Z" fill="#2837FF"/>
<path d="M39.8279 12.2651V17.8358C39.8279 18.6844 39.1443 19.368 38.2957 19.368H8.83143C7.975 19.368 7.29143 18.6844 7.29143 17.8358V12.2651C7.29143 11.4165 7.975 10.7251 8.83143 10.7251H38.2957C39.1443 10.7251 39.8279 11.4165 39.8279 12.2651Z" fill="#54E28E"/>
<path d="M21.6307 24.4672V29.2287C21.6307 30.0772 20.9393 30.7608 20.0907 30.7608H8.82357C7.975 30.7608 7.29143 30.0772 7.29143 29.2287V24.4672C7.29143 23.6108 7.975 22.9272 8.82357 22.9272H20.0907C20.9393 22.9272 21.6307 23.6108 21.6307 24.4672Z" fill="#FBE063"/>
<path d="M39.8279 24.4672V29.2287C39.8279 30.0772 39.1443 30.7608 38.2957 30.7608H27.0286C26.18 30.7608 25.4886 30.0772 25.4886 29.2287V24.4672C25.4886 23.6108 26.18 22.9272 27.0286 22.9272H38.2879C39.1443 22.9272 39.8279 23.6108 39.8279 24.4672Z" fill="#495E66"/>
<path d="M52.6429 27.8144V46.2708C52.6429 48.1172 51.1421 49.618 49.2957 49.618H37.015C35.1686 49.618 33.6679 48.1172 33.6679 46.2708V27.8144C33.6679 25.968 35.1686 24.4751 37.015 24.4751H49.2957C51.1421 24.4751 52.6429 25.968 52.6429 27.8144Z" fill="#FBE063"/>
<path d="M41.6821 37.4315V40.5586C41.6821 41.0772 41.2579 41.5015 40.7393 41.5015H38.1386C37.62 41.5015 37.1957 41.0772 37.1957 40.5586V37.4315C37.1957 36.9129 37.62 36.4886 38.1386 36.4886H40.7393C41.2579 36.4886 41.6821 36.9129 41.6821 37.4315Z" fill="#54E28E"/>
<path d="M49.115 29.1344V33.0001C49.115 33.5187 48.6907 33.9351 48.1721 33.9351H38.1386C37.62 33.9351 37.1957 33.5187 37.1957 33.0001V29.1344C37.1957 28.6158 37.62 28.1915 38.1386 28.1915H48.1721C48.6907 28.1915 49.115 28.6158 49.115 29.1344Z" fill="#94B6FF"/>
<path d="M49.115 37.4315V40.5586C49.115 41.0772 48.6907 41.5015 48.1721 41.5015H45.5714C45.0529 41.5015 44.6286 41.0772 44.6286 40.5586V37.4315C44.6286 36.9129 45.0529 36.4965 45.5714 36.4965H48.1721C48.6907 36.4965 49.115 36.9129 49.115 37.4315Z" fill="white"/>
<path d="M33.6679 44.4479V46.2707C33.6679 48.1172 35.1686 49.6179 37.015 49.6179H49.2957C51.1421 49.6179 52.6429 48.1172 52.6429 46.2707V44.4479H33.6679Z" fill="#495E66"/>
<path d="M45.9486 47.4257H41.0457C40.8257 47.4257 40.6529 47.2529 40.6529 47.0329C40.6529 46.8129 40.8257 46.64 41.0457 46.64H45.9486C46.1686 46.64 46.3414 46.8129 46.3414 47.0329C46.3414 47.2529 46.1607 47.4257 45.9486 47.4257Z" fill="#3C5056"/>
</svg>
