<svg width="55" height="55" viewBox="0 0 55 55" fill="none" xmlns="http://www.w3.org/2000/svg">
<path d="M47.8579 5.64924V40.2285C47.8579 42.0435 46.3807 43.5285 44.5579 43.5285H8.35214C6.53714 43.5285 5.05214 42.0514 5.05214 40.2285V5.64924C5.05214 3.83424 6.52928 2.34924 8.35214 2.34924H44.5657C46.3807 2.3571 47.8579 3.83424 47.8579 5.64924Z" fill="#2837FF"/>
<path d="M49.94 7.7314V42.3107C49.94 44.1257 48.4628 45.6107 46.64 45.6107H10.4343C8.61928 45.6107 7.13428 44.1335 7.13428 42.3107V7.7314C7.13428 5.9164 8.61142 4.4314 10.4343 4.4314H46.6478C48.4628 4.43925 49.94 5.9164 49.94 7.7314Z" fill="white"/>
<path d="M49.94 12.65V7.7314C49.94 5.9164 48.4628 4.4314 46.64 4.4314H10.4343C8.61928 4.4314 7.13428 5.90854 7.13428 7.7314V12.65H49.94Z" fill="#94B6FF"/>
<path d="M10.8979 9.52276C11.4403 9.52276 11.88 9.08304 11.88 8.54061C11.88 7.99819 11.4403 7.55847 10.8979 7.55847C10.3554 7.55847 9.91571 7.99819 9.91571 8.54061C9.91571 9.08304 10.3554 9.52276 10.8979 9.52276Z" fill="#1C26E6"/>
<path d="M14.465 9.52276C15.0074 9.52276 15.4471 9.08304 15.4471 8.54061C15.4471 7.99819 15.0074 7.55847 14.465 7.55847C13.9226 7.55847 13.4828 7.99819 13.4828 8.54061C13.4828 9.08304 13.9226 9.52276 14.465 9.52276Z" fill="#1C26E6"/>
<path d="M18.04 9.52276C18.5824 9.52276 19.0221 9.08304 19.0221 8.54061C19.0221 7.99819 18.5824 7.55847 18.04 7.55847C17.4976 7.55847 17.0579 7.99819 17.0579 8.54061C17.0579 9.08304 17.4976 9.52276 18.04 9.52276Z" fill="#1C26E6"/>
<path d="M47.1664 8.93354H30.1557C29.9357 8.93354 29.7629 8.76068 29.7629 8.54068C29.7629 8.32068 29.9357 8.14783 30.1557 8.14783H47.1664C47.3864 8.14783 47.5593 8.32068 47.5593 8.54068C47.5593 8.76068 47.3864 8.93354 47.1664 8.93354Z" fill="#7A9CFF"/>
<path d="M45.7128 20.3185V24.8678C45.7128 26.4078 44.4636 27.6649 42.9157 27.6649H14.1586C12.6186 27.6649 11.3693 26.4156 11.3693 24.8678V20.3185C11.3693 18.7785 12.6186 17.5214 14.1586 17.5214L42.9157 17.5292C44.4636 17.5292 45.7128 18.7706 45.7128 20.3185Z" fill="#FBE063"/>
<path d="M45.7128 20.3185V24.8678C45.7128 26.4078 44.4636 27.6649 42.9157 27.6649H39.4271C37.8871 27.6649 36.6378 26.4156 36.6378 24.8678V20.3185C36.6378 18.7785 37.8871 17.5214 39.4271 17.5214L42.9157 17.5292C44.4636 17.5292 45.7128 18.7706 45.7128 20.3185Z" fill="#54E28E"/>
<path d="M40.8257 23.9328C41.7587 23.9328 42.515 23.1765 42.515 22.2435C42.515 21.3105 41.7587 20.5542 40.8257 20.5542C39.8927 20.5542 39.1364 21.3105 39.1364 22.2435C39.1364 23.1765 39.8927 23.9328 40.8257 23.9328Z" fill="white"/>
<path d="M43.2143 25.017C43.1121 25.017 43.01 24.9777 42.9393 24.8992L41.745 23.7049C41.5879 23.5477 41.5879 23.3042 41.745 23.147C41.9021 22.9899 42.1457 22.9899 42.3028 23.147L43.4971 24.3413C43.6543 24.4985 43.6543 24.742 43.4971 24.8992C43.4107 24.9777 43.3086 25.017 43.2143 25.017Z" fill="white"/>
<path d="M30.03 20.1927H29.2286L28.2464 23.7206L27.4293 20.1927H26.5807H25.7243L24.9071 23.7206L23.925 20.1927H23.1157L22.1414 23.7206L21.3164 20.1927H20.4757H20.4679H19.6114L18.7943 23.7206L17.8121 20.1927H17.0107L16.0286 23.7206L15.2114 20.1927H14.355L15.6121 24.9935H16.3979L17.4114 21.3635L18.425 24.9935H19.2107L20.4679 20.2006L21.725 24.9935H22.5107L23.5243 21.3635L24.5379 24.9935H25.3157L26.5807 20.2006L27.83 24.9935H28.6157L29.6371 21.3635L30.6429 24.9935H31.4286L32.6936 20.1927H31.8293L31.0121 23.7206" fill="#F9A41A"/>
<path d="M38.9479 42.2321C38.9479 42.3657 38.9479 42.4993 38.94 42.625C38.7514 47.685 34.9564 51.8257 30.0536 52.5328C29.6843 52.5878 29.315 52.6193 28.9379 52.635C28.8121 52.6428 28.6786 52.6428 28.545 52.6428C28.4114 52.6428 28.2779 52.6428 28.1521 52.635C27.775 52.6193 27.4057 52.5878 27.0364 52.5328C22.1257 51.8257 18.3307 47.685 18.1421 42.625C18.1343 42.4993 18.1343 42.3657 18.1343 42.2321C18.1343 42.0986 18.1343 41.965 18.1421 41.8393C18.3307 36.7793 22.1257 32.6386 27.0364 31.9314C27.4057 31.8764 27.775 31.845 28.1521 31.8293C28.2779 31.8214 28.4114 31.8214 28.545 31.8214C28.6786 31.8214 28.8121 31.8214 28.9379 31.8293C29.315 31.845 29.6843 31.8764 30.0536 31.9314C34.9564 32.6386 38.7514 36.7793 38.94 41.8393C38.9479 41.965 38.9479 42.0986 38.9479 42.2321Z" fill="#94B6FF"/>
<path d="M33.4479 41.8393C33.3771 37.125 31.9943 33.2593 30.0536 31.9314C29.6843 31.8764 29.315 31.845 28.9379 31.8293C28.8121 31.8214 28.6786 31.8214 28.545 31.8214C28.4114 31.8214 28.2779 31.8214 28.1521 31.8293C27.775 31.845 27.4057 31.8764 27.0364 31.9314C25.0957 33.2593 23.7129 37.1171 23.6421 41.8393C23.6343 41.9728 23.6343 42.0986 23.6343 42.2321C23.6343 42.3657 23.6343 42.4914 23.6421 42.625C23.7129 47.3471 25.0957 51.205 27.0364 52.5328C27.4057 52.5878 27.775 52.6193 28.1521 52.635C28.2779 52.6428 28.4114 52.6428 28.545 52.6428C28.6786 52.6428 28.8121 52.6428 28.9379 52.635C29.315 52.6193 29.6843 52.5878 30.0536 52.5328C31.9943 51.205 33.3771 47.3393 33.4479 42.625C33.4557 42.4914 33.4557 42.3657 33.4557 42.2321C33.4557 42.0986 33.4557 41.9728 33.4479 41.8393ZM28.9379 52.2028C28.8043 52.2343 28.6786 52.25 28.545 52.25C28.4114 52.25 28.2857 52.2343 28.1521 52.2028C26.1407 51.7157 24.5064 47.5671 24.4279 42.625C24.42 42.4993 24.42 42.3657 24.42 42.2321C24.42 42.0986 24.42 41.965 24.4279 41.8393C24.5064 36.8971 26.1407 32.7486 28.1521 32.2614C28.2857 32.23 28.4114 32.2143 28.545 32.2143C28.6786 32.2143 28.8043 32.23 28.9379 32.2614C30.9414 32.7486 32.5836 36.8971 32.6621 41.8393C32.67 41.965 32.67 42.0986 32.67 42.2321C32.67 42.3657 32.67 42.4993 32.6621 42.625C32.5836 47.5671 30.9414 51.7157 28.9379 52.2028Z" fill="#1C26E6"/>
<path d="M28.9379 31.8293V52.635C28.8121 52.6428 28.6786 52.6428 28.545 52.6428C28.4114 52.6428 28.2779 52.6428 28.1521 52.635V31.8293C28.2779 31.8214 28.4114 31.8214 28.545 31.8214C28.6786 31.8214 28.8121 31.8214 28.9379 31.8293Z" fill="#1C26E6"/>
<path d="M38.9479 42.2321C38.9479 42.3657 38.9479 42.4992 38.94 42.6249H18.1421C18.1343 42.4992 18.1343 42.3657 18.1343 42.2321C18.1343 42.0985 18.1343 41.9649 18.1421 41.8392H38.94C38.9479 41.9649 38.9479 42.0985 38.9479 42.2321Z" fill="#1C26E6"/>
</svg>
