<svg width="20" height="20" viewBox="0 0 20 20" fill="none" xmlns="http://www.w3.org/2000/svg">
<g clip-path="url(#clip0_2042_203)">
<path d="M13.7446 5.28786C13.3566 4.89554 12.7245 4.89059 12.3304 5.27683L4.93872 12.5823L1.7255 9.2558C1.34226 8.85637 0.707789 8.84326 0.308399 9.2265C-0.0910351 9.60974 -0.104146 10.2442 0.279096 10.6436C0.280832 10.6454 0.282525 10.6472 0.284262 10.6489L4.20211 14.7091C4.38961 14.9004 4.64587 15.0087 4.91372 15.0098H4.92475C5.18752 15.0089 5.43948 14.9049 5.62633 14.7201L13.7356 6.70205C14.1274 6.31351 14.1313 5.68139 13.7446 5.28786Z" fill="#1C26E6"/>
<path d="M10.2156 14.709C10.4026 14.8998 10.6581 15.0081 10.9252 15.0097H10.9363C11.199 15.0089 11.451 14.9049 11.6378 14.7201L19.7471 6.70199C20.1147 6.2881 20.0771 5.65463 19.6633 5.28706C19.2881 4.95383 18.7243 4.94945 18.344 5.27677L10.9553 12.5822L10.6917 12.3086C10.3085 11.9092 9.67402 11.896 9.27458 12.2793C8.87515 12.6625 8.862 13.2969 9.24524 13.6964C9.24697 13.6982 9.24871 13.7 9.25045 13.7017L10.2156 14.709Z" fill="#1C26E6"/>
</g>
<defs>
<clipPath id="clip0_2042_203">
<rect width="20" height="20" fill="white"/>
</clipPath>
</defs>
</svg>
