<svg width="55" height="55" viewBox="0 0 55 55" fill="none" xmlns="http://www.w3.org/2000/svg">
<path d="M50.105 6.33291V46.2708C50.105 48.3686 48.4 50.0736 46.3021 50.0736H6.29357C4.19572 50.0736 2.49072 48.3686 2.49072 46.2708V6.33291C2.49072 4.23506 4.19572 2.53006 6.29357 2.53006H46.3021C48.4 2.5222 50.105 4.2272 50.105 6.33291Z" fill="#1C26E6"/>
<path d="M52.5093 8.73721V48.6751C52.5093 50.7729 50.8043 52.4779 48.7064 52.4779H8.69786C6.6 52.4779 4.895 50.7729 4.895 48.6751V8.73721C4.895 6.63935 6.6 4.93435 8.69786 4.93435H48.7064C50.8043 4.9265 52.5093 6.6315 52.5093 8.73721Z" fill="white"/>
<path d="M52.5093 14.41V8.73718C52.5093 6.63933 50.8043 4.93433 48.7064 4.93433H8.69786C6.6 4.93433 4.895 6.63933 4.895 8.73718V14.41H52.5093Z" fill="#94B6FF"/>
<path d="M9.23214 10.8036C9.85701 10.8036 10.3636 10.2971 10.3636 9.6722C10.3636 9.04733 9.85701 8.54077 9.23214 8.54077C8.60727 8.54077 8.10072 9.04733 8.10072 9.6722C8.10072 10.2971 8.60727 10.8036 9.23214 10.8036Z" fill="#6A8CFF"/>
<path d="M13.3571 10.8036C13.982 10.8036 14.4886 10.2971 14.4886 9.6722C14.4886 9.04733 13.982 8.54077 13.3571 8.54077C12.7323 8.54077 12.2257 9.04733 12.2257 9.6722C12.2257 10.2971 12.7323 10.8036 13.3571 10.8036Z" fill="#6A8CFF"/>
<path d="M17.4821 10.8036C18.107 10.8036 18.6136 10.2971 18.6136 9.6722C18.6136 9.04733 18.107 8.54077 17.4821 8.54077C16.8573 8.54077 16.3507 9.04733 16.3507 9.6722C16.3507 10.2971 16.8573 10.8036 17.4821 10.8036Z" fill="#6A8CFF"/>
<path d="M49.3036 10.065H31.4757C31.2557 10.065 31.0829 9.89215 31.0829 9.67215C31.0829 9.45215 31.2557 9.2793 31.4757 9.2793H49.3036C49.5236 9.2793 49.6964 9.45215 49.6964 9.67215C49.6964 9.89215 49.5236 10.065 49.3036 10.065Z" fill="#6A8CFF"/>
<path d="M43.8193 26.675V40.4879C43.8193 42.4521 42.2321 44.0393 40.2679 44.0393H17.1364C15.1721 44.0393 13.5771 42.4521 13.5771 40.4879V26.675C13.5771 24.7107 15.1721 23.1157 17.1364 23.1157H40.2757C42.24 23.1157 43.8193 24.7107 43.8193 26.675Z" fill="#54E28E"/>
<path d="M32.6308 35.2608L28.3408 38.0029C27.0915 38.8044 25.4493 37.9087 25.4493 36.4237V30.9237C25.4493 29.4387 27.0915 28.5429 28.3408 29.3444L32.6308 32.0865C33.7858 32.8329 33.7858 34.5222 32.6308 35.2608Z" fill="white"/>
<path d="M46.75 40.425L45.76 41.2108L49.0364 45.3515C49.4764 45.9015 49.3821 46.7108 48.8243 47.1429L46.1371 49.2722C45.5871 49.7122 44.7779 49.6179 44.3457 49.06L41.0693 44.9193L40.315 45.5165C39.5293 46.1372 38.3664 45.6422 38.2721 44.6443L37.565 37.1408C37.4786 36.2293 38.3664 35.53 39.2307 35.8208L46.3729 38.2408C47.3236 38.5629 47.5357 39.8122 46.75 40.425Z" fill="#FBE063"/>
</svg>
