<svg width="90" height="60" viewBox="0 0 90 60" fill="none" xmlns="http://www.w3.org/2000/svg">
<g clip-path="url(#clip0_2_4)">
<path d="M47.323 2.32186L0 10.3551L8.03324 57.6781L55.3563 49.6449L47.323 2.32186Z" fill="#146EF5"/>
<path fill-rule="evenodd" clip-rule="evenodd" d="M41.8721 18.4617L35.5822 38.4632L26.7398 39.9642L29.3848 31.6683L29.208 31.6983C26.674 36.4693 22.296 40.0701 15.4933 41.8734L14.2165 34.3518C14.2165 34.3518 18.5924 33.3403 20.7273 30.1671L13.7084 31.3586L12.3693 23.4701L20.2578 22.131L21.3592 28.6192L21.5361 28.5884L23.6584 21.5537L29.6242 20.541L30.7186 26.9881L30.8957 26.9577L33.1457 19.9431L41.8721 18.4617Z" fill="white"/>
</g>
<g clip-path="url(#clip1_2_4)">
<path d="M89.7512 12.6937L43.2474 0.802551L31.3563 47.3063L77.86 59.1975L89.7512 12.6937Z" fill="#00FC65"/>
<path d="M60.7494 14.7423L71.7765 17.5619L58.007 28.5303L46.9799 25.7107L60.7494 14.7423Z" fill="#111E14"/>
<path d="M69.0341 31.35L58.007 28.5303L54.0125 44.152L69.0341 31.35Z" fill="#111E14"/>
<path d="M78.7601 19.3477L71.7763 17.5619L69.3326 27.1187L78.7601 19.3477Z" fill="#111E14"/>
</g>
<defs>
<clipPath id="clip0_2_4">
<rect y="10.3551" width="48" height="48" rx="8.47059" transform="rotate(-9.63431 0 10.3551)" fill="white"/>
</clipPath>
<clipPath id="clip1_2_4">
<rect x="43.2474" y="0.802551" width="48" height="48" rx="8.47059" transform="rotate(14.3434 43.2474 0.802551)" fill="white"/>
</clipPath>
</defs>
</svg>
